<svg class="animated" id="freepik_stories-cute-cactus" xmlns="http://www.w3.org/2000/svg" viewBox="0 0 500 500" version="1.1" xmlns:xlink="http://www.w3.org/1999/xlink" xmlns:svgjs="http://svgjs.com/svgjs"><style>svg#freepik_stories-cute-cactus:not(.animated) .animable {opacity: 0;}svg#freepik_stories-cute-cactus.animated #freepik--background-simple--inject-2 {animation: 1s 1 forwards cubic-bezier(.36,-0.01,.5,1.38) lightSpeedLeft;animation-delay: 0s;}svg#freepik_stories-cute-cactus.animated #freepik--Floor--inject-2 {animation: 1s 1 forwards cubic-bezier(.36,-0.01,.5,1.38) lightSpeedLeft;animation-delay: 0s;}svg#freepik_stories-cute-cactus.animated #elk4wh23biqli {animation: 0.5s 1 forwards cubic-bezier(.36,-0.01,.5,1.38) slideRight;animation-delay: 0s;}svg#freepik_stories-cute-cactus.animated #elu2cgeb4d2pf {animation: 0.5s 1 forwards cubic-bezier(.36,-0.01,.5,1.38) slideRight;animation-delay: 0.07142857142857142s;opacity: 0}svg#freepik_stories-cute-cactus.animated #elqv45u8n8jk {animation: 0.5s 1 forwards cubic-bezier(.36,-0.01,.5,1.38) slideRight;animation-delay: 0.14285714285714285s;opacity: 0}svg#freepik_stories-cute-cactus.animated #el3odpsk3i2j1 {animation: 0.5s 1 forwards cubic-bezier(.36,-0.01,.5,1.38) slideRight;animation-delay: 0.21428571428571427s;opacity: 0}svg#freepik_stories-cute-cactus.animated #elz9w0pi494yk {animation: 0.5s 1 forwards cubic-bezier(.36,-0.01,.5,1.38) slideRight;animation-delay: 0.2857142857142857s;opacity: 0}svg#freepik_stories-cute-cactus.animated #ellpf7x947pg {animation: 0.5s 1 forwards cubic-bezier(.36,-0.01,.5,1.38) slideRight;animation-delay: 0.3571428571428571s;opacity: 0}svg#freepik_stories-cute-cactus.animated #eldg2i0zgidyd {animation: 0.5s 1 forwards cubic-bezier(.36,-0.01,.5,1.38) slideRight;animation-delay: 0.42857142857142855s;opacity: 0}svg#freepik_stories-cute-cactus.animated #freepik--Hearts--inject-2 {animation: 0.5s 1 forwards cubic-bezier(.36,-0.01,.5,1.38) slideRight,3s Infinite  linear heartbeat;animation-delay: 0s,0.5s;}svg#freepik_stories-cute-cactus.animated #freepik--Cactus--inject-2 {animation: 1s 1 forwards cubic-bezier(.36,-0.01,.5,1.38) zoomOut;animation-delay: 0s;}            @keyframes lightSpeedLeft {              from {                transform: translate3d(-50%, 0, 0) skewX(20deg);                opacity: 0;              }              60% {                transform: skewX(-10deg);                opacity: 1;              }              80% {                transform: skewX(2deg);              }              to {                opacity: 1;                transform: translate3d(0, 0, 0);              }            }                    @keyframes slideRight {                0% {                    opacity: 0;                    transform: translateX(30px);                }                100% {                    opacity: 1;                    transform: translateX(0);                }            }                    @keyframes heartbeat {                0% {                    transform: scale(1);                }                10% {                    transform: scale(1.1);                }                30% {                    transform: scale(1);                }                40% {                    transform: scale(1);                }                50% {                    transform: scale(1.1);                }                60% {                    transform: scale(1);                }                100% {                    transform: scale(1);                }            }                    @keyframes zoomOut {                0% {                    opacity: 0;                    transform: scale(1.5);                }                100% {                    opacity: 1;                    transform: scale(1);                }            }        </style><g id="freepik--background-simple--inject-2" class="animable" style="transform-origin: 244.095px 235.684px;"><path d="M53.62,111.07c1.56-2.56,3.17-5.07,4.86-7.52,22.52-32.62,60-54.95,96.41-65.07a210.91,210.91,0,0,1,48.69-7.35C310.84,27.29,350.25,114.51,384.81,137s87.59,60.9,80.93,141.59c-5.05,61.35-40.44,120-105.07,146.71a184.6,184.6,0,0,1-22.43,7.63,216,216,0,0,1-47.37,7.18c-48.87,2.15-88.55-9.47-127.36-38.72-9-6.8-18-14.47-29.7-15.31-8.51-.61-16.58,2.41-7.68,10.52,10.45,9.53-1.61,28.28-28.15,15.25C53.66,390.1,35.42,343.16,26.83,295.42,16.29,236.84,21.4,164,53.62,111.07Z" style="fill: rgb(255, 229, 152); transform-origin: 244.095px 235.684px;" id="elcm3uywu9mf" class="animable"></path><g id="elktlwpqi4qp"><path d="M53.62,111.07c1.56-2.56,3.17-5.07,4.86-7.52,22.52-32.62,60-54.95,96.41-65.07a210.91,210.91,0,0,1,48.69-7.35C310.84,27.29,350.25,114.51,384.81,137s87.59,60.9,80.93,141.59c-5.05,61.35-40.44,120-105.07,146.71a184.6,184.6,0,0,1-22.43,7.63,216,216,0,0,1-47.37,7.18c-48.87,2.15-88.55-9.47-127.36-38.72-9-6.8-18-14.47-29.7-15.31-8.51-.61-16.58,2.41-7.68,10.52,10.45,9.53-1.61,28.28-28.15,15.25C53.66,390.1,35.42,343.16,26.83,295.42,16.29,236.84,21.4,164,53.62,111.07Z" style="fill: rgb(255, 255, 255); opacity: 0.7; transform-origin: 244.095px 235.684px;" class="animable"></path></g></g><g id="freepik--Floor--inject-2" class="animable" style="transform-origin: 251.03px 461.15px;"><rect x="430.32" y="460.65" width="12.17" height="1" style="fill: rgb(38, 50, 56); transform-origin: 436.405px 461.15px;" id="eleyuvztr1pm" class="animable"></rect><rect x="59.57" y="460.65" width="359.3" height="1" style="fill: rgb(38, 50, 56); transform-origin: 239.22px 461.15px;" id="eluic23iejpr" class="animable"></rect></g><g id="freepik--Hearts--inject-2" class="animable animator-active" style="transform-origin: 252.332px 219.533px;"><path d="M119.51,67.63S101,44.74,87.22,55c-16,11.85-1,32.66,11.74,39.42,3.54,1.88,39.66,20.87,38.9,23,6.26-17.69,15.4-36.35,18.54-54.92,1.8-10.66-2.23-29.7-16.23-29.11C122.17,34.14,119.51,67.63,119.51,67.63Z" style="fill: rgb(255, 229, 152); transform-origin: 118.545px 75.3983px;" id="elk4wh23biqli" class="animable"></path><path d="M198.66,85.42s.48-17.23-9.55-17.94c-11.64-.82-12.89,14.15-9.78,22,.86,2.18,9.72,24.4,8.55,25.07,9.53-5.49,20.7-10.33,29.17-17.4,4.86-4.06,10.32-14.08,3.86-19.14C212.6,71.52,198.66,85.42,198.66,85.42Z" style="fill: rgb(255, 229, 152); transform-origin: 200.866px 90.9988px;" id="elu2cgeb4d2pf" class="animable"></path><path d="M72.35,292.73s-8.39-4-10.91.83c-2.92,5.56,4.19,9.41,8.74,9.59,1.27,0,14.13.49,14.21,1.21-.64-5.89-.6-12.45-2.26-18.15-.95-3.28-4.71-8.13-8.6-6C68.52,282.85,72.35,292.73,72.35,292.73Z" style="fill: rgb(255, 229, 152); transform-origin: 72.5735px 292.023px;" id="elqv45u8n8jk" class="animable"></path><path d="M411.18,196.49s-3.57-8.57-8.65-6.7c-5.9,2.17-3.2,9.8.07,13,.9.88,10.16,9.83,9.74,10.41,3.46-4.8,7.88-9.64,10.47-15,1.49-3.07,1.95-9.19-2.34-10.25C415,186.58,411.18,196.49,411.18,196.49Z" style="fill: rgb(255, 229, 152); transform-origin: 411.459px 200.51px;" id="el3odpsk3i2j1" class="animable"></path><path d="M431.22,365.4s-3.57-8.57-8.65-6.69c-5.9,2.17-3.2,9.79.07,13,.9.88,10.16,9.83,9.74,10.42,3.46-4.81,7.88-9.65,10.47-15,1.49-3.07,1.95-9.2-2.34-10.26C435,355.49,431.22,365.4,431.22,365.4Z" style="fill: rgb(255, 229, 152); transform-origin: 431.499px 369.434px;" id="elz9w0pi494yk" class="animable"></path><path d="M430.51,95.57s-3.58-8.57-8.66-6.7c-5.89,2.18-3.2,9.8.07,13,.91.88,10.17,9.83,9.74,10.42,3.47-4.81,7.88-9.65,10.48-15,1.48-3.06,1.95-9.19-2.34-10.25C434.28,85.66,430.51,95.57,430.51,95.57Z" style="fill: rgb(255, 229, 152); transform-origin: 430.784px 99.5991px;" id="ellpf7x947pg" class="animable"></path><path d="M384.86,380.8s3-15.58-6-17.71C368.4,360.61,365,374,366.69,381.64c.46,2.11,5.19,23.61,4,24.05,9.47-3.58,20.34-6.3,29.08-11.47,5-3,11.47-11.25,6.35-16.82C399.58,370.25,384.86,380.8,384.86,380.8Z" style="fill: rgb(255, 229, 152); transform-origin: 387.135px 384.239px;" id="eldg2i0zgidyd" class="animable"></path></g><g id="freepik--Cactus--inject-2" class="animable" style="transform-origin: 264.716px 264.545px;"><path d="M180.38,224.77s-12.92,0-12.33-17,10.57-27,5.29-43.47-28.2-18.8-41.12-.59S114,216,131.63,239.45s45.23,11.75,45.23,11.75" style="fill: rgb(255, 229, 152); transform-origin: 150.372px 202.548px;" id="elzq3w43194qf" class="animable"></path><path d="M160.89,254.58a35.66,35.66,0,0,1-29.66-14.83c-17.24-23-13.24-56.87.58-76.36,6.6-9.29,16.64-14.15,26.21-12.67a19.32,19.32,0,0,1,15.79,13.4c3.22,10,.86,17.67-1.63,25.79-1.67,5.45-3.4,11.08-3.63,17.84-.2,5.7,1.11,10.05,3.89,12.93a12.13,12.13,0,0,0,7.94,3.59v1a12.94,12.94,0,0,1-8.65-3.88c-3-3.09-4.39-7.68-4.18-13.67.24-6.9,2-12.6,3.67-18.1,2.45-8,4.76-15.5,1.64-25.2a18.38,18.38,0,0,0-15-12.72C148.68,150.28,139,155,132.63,164c-13.62,19.19-17.57,52.56-.6,75.18,17.18,22.91,44.36,11.71,44.63,11.59l.4.92A46.12,46.12,0,0,1,160.89,254.58Z" style="fill: rgb(38, 50, 56); transform-origin: 150.095px 202.522px;" id="el9dv9qg3l4ok" class="animable"></path><path d="M170.57,231.26a17.65,17.65,0,0,1-8.12-2.83l.54-.84a16.84,16.84,0,0,0,7.58,2.67Z" style="fill: rgb(38, 50, 56); transform-origin: 166.51px 229.425px;" id="eluwbv7csx5e" class="animable"></path><path d="M157.63,223.33a14.71,14.71,0,0,1-1.71-7.13c0-7.06,2.69-16,5.07-23.87,1.71-5.69,3.33-11.07,3.67-14.87a64,64,0,0,0-.82-16.91l1-.21a65.32,65.32,0,0,1,.84,17.21c-.35,3.91-2,9.33-3.72,15.07-2.35,7.81-5,16.67-5,23.58a13.78,13.78,0,0,0,1.59,6.66Z" style="fill: rgb(38, 50, 56); transform-origin: 160.913px 191.835px;" id="elfd0mr2xp4ji" class="animable"></path><path d="M165.05,247.12c-5.43,0-14.81-1.54-24.76-10.15-8.11-7-11-18.31-12-26.56l1-.12c1,8.07,3.8,19.12,11.66,25.92,15,13,28.53,9.51,28.67,9.47l.26,1A20.17,20.17,0,0,1,165.05,247.12Z" style="fill: rgb(38, 50, 56); transform-origin: 149.085px 228.709px;" id="elstfbj2xdpv" class="animable"></path><path d="M128.76,200.39h-1c.1-9.59,1.89-19.36,4.9-26.81C139.77,156,154.58,155,154.73,155l.06,1c-.14,0-14.34,1-21.2,18C130.62,181.28,128.86,190.92,128.76,200.39Z" style="fill: rgb(38, 50, 56); transform-origin: 141.275px 177.695px;" id="elkbee5a2maci" class="animable"></path><path d="M211.2,396.52h96.89c-3-15-6.63-39.58-4.75-65.38,1.46-19.95,8.86-38.57,21.76-55,7.28-9.27,16.82-21.17,27.8-34.33,25.29-30.32,29.78-93-9.69-117.58C305.82,101,254.22,108.88,223.9,138s-58.64,81.37-52.42,158.87C175.51,347.07,203,388.74,211.2,396.52Z" style="fill: rgb(255, 229, 152); transform-origin: 271.497px 253.587px;" id="el79b71vz4te" class="animable"></path><path d="M308.7,397H211l-.14-.14c-7.6-7.19-35.77-48.74-39.88-100-7-87.86,29.91-137.5,52.58-159.27,15-14.41,35.35-23.88,57.28-26.66,22.5-2.86,44.75,1.71,62.63,12.85,19.28,12,26,31.32,28.29,45.41,4.08,25.47-3.34,54.77-18.48,72.91-9.34,11.19-18.68,22.74-27.78,34.32-12.93,16.44-20.21,34.84-21.66,54.71-1.84,25.31,1.56,49.45,4.74,65.24Zm-97.3-1h96.08c-3.16-15.86-6.46-39.81-4.64-64.92,1.46-20.06,8.82-38.65,21.87-55.25,9.11-11.59,18.46-23.14,27.8-34.34,15-17.93,22.3-46.91,18.26-72.11-2.23-13.88-8.87-32.91-27.83-44.72-36.12-22.51-87.14-16.62-118.69,13.68C201.71,160,165,209.38,172,296.83,176,347.45,203.66,388.51,211.4,396Z" style="fill: rgb(38, 50, 56); transform-origin: 271.489px 253.549px;" id="elkyusmx0en5" class="animable"></path><path d="M240.27,148.52l-.67-.75a75.94,75.94,0,0,1,17.3-11.91l.44.9A74.83,74.83,0,0,0,240.27,148.52Z" style="fill: rgb(38, 50, 56); transform-origin: 248.47px 142.19px;" id="el7noqhqteoc4" class="animable"></path><path d="M187,288.19h-1a217.91,217.91,0,0,1,2.36-32.12c6.16-41.19,24.12-81.1,46.88-104.16l.71.7c-22.61,22.92-40.47,62.62-46.61,103.61A217.24,217.24,0,0,0,187,288.19Z" style="fill: rgb(38, 50, 56); transform-origin: 210.975px 220.05px;" id="elalp3bgy3qls" class="animable"></path><path d="M195.06,351.6c-.07-.23-7.78-23-8.89-55.44l1,0c1.12,32.26,8.77,54.93,8.85,55.15Z" style="fill: rgb(38, 50, 56); transform-origin: 191.095px 323.88px;" id="el1vczr1i18f6" class="animable"></path><path d="M256.32,185.22l-.89-.45c1.16-2.29,2.41-4.62,3.72-6.93l.87.49C258.72,180.63,257.47,183,256.32,185.22Z" style="fill: rgb(38, 50, 56); transform-origin: 257.725px 181.53px;" id="eljwha9azti8" class="animable"></path><path d="M263,173.22l-.86-.52A241.41,241.41,0,0,1,280.87,146l.77.64A239.59,239.59,0,0,0,263,173.22Z" style="fill: rgb(38, 50, 56); transform-origin: 271.89px 159.61px;" id="elre9xx3pdrn" class="animable"></path><path d="M224.59,350.27a208.86,208.86,0,0,1-.55-70.79l1,.17a207.89,207.89,0,0,0,.54,70.45Z" style="fill: rgb(38, 50, 56); transform-origin: 223.434px 314.875px;" id="elnrj3qfu63bs" class="animable"></path><path d="M226.14,273.5l-1-.19c3.89-19.6,9.4-31.41,9.45-31.52l.91.42C235.46,242.33,230,254,226.14,273.5Z" style="fill: rgb(38, 50, 56); transform-origin: 230.32px 257.645px;" id="elrluev89ygqh" class="animable"></path><path d="M285.71,259l-.88-.48a47.41,47.41,0,0,1,4.36-6.81l.77.65A45.6,45.6,0,0,0,285.71,259Z" style="fill: rgb(38, 50, 56); transform-origin: 287.395px 255.355px;" id="elsuphu2rcjap" class="animable"></path><path d="M264.94,356.88a213.58,213.58,0,0,1,4.59-54.66c3.22-14.3,7.22-26.75,11.92-37l.91.41c-4.67,10.18-8.65,22.56-11.85,36.8a212.37,212.37,0,0,0-4.57,54.37Z" style="fill: rgb(38, 50, 56); transform-origin: 273.542px 311.05px;" id="ely5fcvu5kfb" class="animable"></path><path d="M323.48,200.76l-.86-.51c7-11.78,15.21-29.54,14.72-47.28l1,0C338.84,170.92,330.53,188.87,323.48,200.76Z" style="fill: rgb(38, 50, 56); transform-origin: 330.491px 176.865px;" id="elvs6kno9k25c" class="animable"></path><path d="M314.51,214l-.77-.63s2.46-3.06,5.72-8.06l.84.55C317,210.92,314.54,214,314.51,214Z" style="fill: rgb(38, 50, 56); transform-origin: 317.02px 209.655px;" id="eldyv757jcxsg" class="animable"></path><g id="el0hx83mgwrf74"><rect x="321.7" y="258.77" width="7.74" height="1" style="fill: rgb(38, 50, 56); transform-origin: 325.57px 259.27px; transform: rotate(-53.73deg);" class="animable"></rect></g><path d="M333,249.93l-.81-.59,9-12.21c18-24.53,16.56-55.13,16.54-55.44l1-.05c0,.31,1.47,31.25-16.74,56.08Z" style="fill: rgb(38, 50, 56); transform-origin: 345.474px 215.785px;" id="el8g4p111clb" class="animable"></path><path d="M292,349.83c-3.31-25.67,7.45-43.83,7.56-44l.86.52c-.11.17-10.69,18.05-7.42,43.36Z" style="fill: rgb(38, 50, 56); transform-origin: 295.894px 327.83px;" id="elu9a4tcvetab" class="animable"></path><g id="el4zptgcl49jj"><ellipse cx="288.73" cy="232.72" rx="12.92" ry="14.68" style="fill: rgb(255, 255, 255); transform-origin: 288.73px 232.72px; transform: rotate(-82.61deg);" class="animable"></ellipse></g><g id="elgly6cac2qm4"><ellipse cx="212.4" cy="195.58" rx="12.92" ry="14.68" style="fill: rgb(255, 255, 255); transform-origin: 212.4px 195.58px; transform: rotate(-67.13deg);" class="animable"></ellipse></g><path d="M249.19,230.76a18.27,18.27,0,0,1-4.84-.66,17.64,17.64,0,0,1-10.5-8,16.32,16.32,0,0,1-1.77-12.81,16.5,16.5,0,0,1,2.28-4.88,2.5,2.5,0,0,1,4.12,2.85,11,11,0,0,0-1.58,3.37,11.36,11.36,0,0,0,1.24,8.92,12.88,12.88,0,0,0,17,4.71,11.35,11.35,0,0,0,5.67-7,2.5,2.5,0,0,1,4.82,1.34,16.32,16.32,0,0,1-8.12,10.06A17.37,17.37,0,0,1,249.19,230.76Z" style="fill: rgb(38, 50, 56); transform-origin: 248.604px 217.045px;" id="elzo4xlahqiwl" class="animable"></path><g id="ellj9yghyv1v"><circle cx="229.11" cy="184.61" r="9.22" style="fill: rgb(38, 50, 56); transform-origin: 229.11px 184.61px; transform: rotate(-32.31deg);" class="animable"></circle></g><path d="M237.35,184.52a4.29,4.29,0,1,1-3.7-4.8A4.28,4.28,0,0,1,237.35,184.52Z" style="fill: rgb(255, 255, 255); transform-origin: 233.095px 183.974px;" id="elszgszxufc6q" class="animable"></path><path d="M233.1,188.76c-.2,0-.41,0-.62,0a4.79,4.79,0,1,1,5.37-4.14h0A4.8,4.8,0,0,1,233.1,188.76Zm0-8.58a3.79,3.79,0,0,0-3.76,3.3,3.81,3.81,0,0,0,3.27,4.25,3.81,3.81,0,0,0,4.25-3.27h0a3.81,3.81,0,0,0-3.27-4.25Z" style="fill: rgb(38, 50, 56); transform-origin: 233.099px 183.99px;" id="elwzyn0xy77t" class="animable"></path><g id="el4jfkhx5b0pi"><circle cx="285.88" cy="212.2" r="9.22" style="fill: rgb(38, 50, 56); transform-origin: 285.88px 212.2px; transform: rotate(-61.98deg);" class="animable"></circle></g><path d="M294.13,212.1a4.29,4.29,0,1,1-3.7-4.8A4.29,4.29,0,0,1,294.13,212.1Z" style="fill: rgb(255, 255, 255); transform-origin: 289.875px 211.554px;" id="elf1l1rw5wsi4" class="animable"></path><path d="M289.88,216.34a4.4,4.4,0,0,1-.62,0,4.79,4.79,0,0,1-2.31-8.54,4.78,4.78,0,0,1,6.72.87,4.79,4.79,0,0,1-3.79,7.71Zm0-8.58a3.77,3.77,0,1,0,.49,0A4,4,0,0,0,289.87,207.76Z" style="fill: rgb(38, 50, 56); transform-origin: 289.876px 211.589px;" id="elcq6qyhxvfsa" class="animable"></path><path d="M371.7,172.44C369.31,153,360.46,135,343.21,124.25c-27.89-17.37-63.67-17.37-92.64-4.17.71,1,1.51,2.1,2.42,3.22,9.3,11.44,28.6,12.87,28.6,12.87s-21.45-.72-29.31,2.14-9.3,13.59,3.57,22.88,27.17,2.86,33.61-1.43a49.32,49.32,0,0,0,10.05-9.17l.17,0c-2.28,4.07-11.39,21.17-9.51,30.57,2.15,10.73,15,13.59,23.6,10,5.46-2.28,6.86-15.27,7.16-24.41.7,8.64,3.63,21,14.28,25.84,17.16,7.87,32.89,0,34.32-7.15s-5-9.29-9.29-16.44L356,161.91A45.11,45.11,0,0,0,371.7,172.44Z" style="fill: rgb(38, 50, 56); transform-origin: 308.985px 153.258px;" id="el1yj0c9vfpdp" class="animable"></path><path d="M349.83,196.44A35.88,35.88,0,0,1,335,193.11c-8.71-4-12.4-12.74-13.88-20.86-.7,8.68-2.57,17.51-7.17,19.43a20.61,20.61,0,0,1-17-.68,13.79,13.79,0,0,1-7.31-9.69c-1.59-7.94,4.33-20.95,7.87-27.78a47.5,47.5,0,0,1-7.82,6.65c-4.4,2.94-19.89,11.73-34.17,1.42-6.91-5-10.44-10.93-9.7-16.3a9.2,9.2,0,0,1,6.25-7.46c5.14-1.87,15.78-2.23,22.79-2.26-6.56-1.45-16.43-4.75-22.3-12-.87-1.07-1.69-2.16-2.44-3.25l-.34-.49.54-.25c30.77-14,66.45-12.41,93.11,4.21,15.89,9.9,26.09,27.14,28.73,48.55l.1.82-.77-.29a44.86,44.86,0,0,1-13.27-8.12l2.41,4a35.47,35.47,0,0,0,4.83,6c2.95,3.15,5.5,5.87,4.52,10.75-.57,2.89-3.33,5.84-7.37,7.9A28.16,28.16,0,0,1,349.83,196.44Zm-28.4-29.67c.72,9,3.74,20.73,14,25.43,9.1,4.17,19.11,4.32,26.78.41,3.77-1.92,6.33-4.62,6.84-7.21.88-4.37-1.39-6.8-4.27-9.87a36.16,36.16,0,0,1-5-6.22l-4.29-7.15.8-.59a45.25,45.25,0,0,0,14.78,10.1c-2.76-20.72-12.73-37.39-28.16-47-26.23-16.34-61.27-18-91.62-4.4.65.91,1.34,1.81,2.06,2.7,9.05,11.15,28.06,12.67,28.25,12.69l-.06,1c-.21,0-21.44-.68-29.12,2.11a8.21,8.21,0,0,0-5.6,6.66c-.69,5,2.69,10.58,9.29,15.35,13.76,9.93,28.77,1.4,33-1.44a48.82,48.82,0,0,0,9.94-9.08l.21-.25,1.09.31-.31.55c-1.9,3.41-11.32,20.9-9.45,30.23a12.88,12.88,0,0,0,6.8,9,19.58,19.58,0,0,0,16.11.64c4-1.65,6.41-10.17,6.86-24Z" style="fill: rgb(38, 50, 56); transform-origin: 308.992px 153.275px;" id="elkb0mwklugg" class="animable"></path><path d="M247,100.65s-1.58,6.8,7.71,18.24,28.6,12.87,28.6,12.87-21.45-.71-29.31,2.15-9.3,13.58,3.57,22.88,27.17,2.86,33.61-1.43a48.85,48.85,0,0,0,10.72-10s-12.15,20.73-10,31.46,15,13.58,23.6,10,7.15-33.61,7.15-33.61-2.86,27.17,14.3,35,32.89,0,34.32-7.15-5-9.3-9.3-16.45l-4.29-7.15s15,16.45,32.18,11.44,22.87-23.59,17.16-24.31-13.59-1.43-25-7.86l-11.44-6.44s13.59,0,18.59-15.73,0-22.16-6.43-23.59-20,5-27.17,11.44-11.93,5-11.93,5S357.05,81,348.47,71.67s-17.93-5.25-22.22-1S314.81,93.87,314.1,97.44,308.38,83.14,301.23,76s-22.88-12.15-27.17-5,0,23.59,5.72,27.88a57,57,0,0,1,10,10s-22.17-6.43-29.32-15S247,94.93,247,100.65Z" style="fill: rgb(145, 145, 145); transform-origin: 328.031px 128.742px;" id="eldmuyi2k5q8" class="animable"></path><path d="M351.59,192a35.72,35.72,0,0,1-14.82-3.33c-8.78-4-12.41-13-13.86-21-.66,8.38-2.49,17.62-7.19,19.58a20.63,20.63,0,0,1-17-.68,13.79,13.79,0,0,1-7.32-9.7c-1.6-8,4.44-21.15,7.87-27.77a47.54,47.54,0,0,1-7.81,6.64c-4.41,2.94-19.91,11.73-34.18,1.42-6.91-5-10.44-10.93-9.7-16.29a9.17,9.17,0,0,1,6.25-7.46c5.14-1.87,15.78-2.24,22.79-2.26-6.56-1.46-16.43-4.75-22.29-12-9-11.07-8-17.86-7.83-18.61,0-3.82,2.6-9,6.29-10.31,1.86-.67,4.77-.65,8,3.26,5.88,7.06,22.38,12.74,27.52,14.38a56,56,0,0,0-8.9-8.66c-6-4.51-10.26-21.19-5.85-28.54a8.05,8.05,0,0,1,6.23-3.61c6.49-.79,16.23,3,21.72,8.52,4.11,4.11,7.53,11.72,9.79,16.76a47.66,47.66,0,0,0,2.29,4.72c.92-3.94,7.8-22.32,12.24-26.77a16.43,16.43,0,0,1,11.41-4.81c4.18.08,8.05,2,11.53,5.79,8.08,8.76-2.44,31.56-4.45,35.7,1.46.12,5.45-.1,10.84-5,7.29-6.56,20.94-13,27.61-11.56a10.52,10.52,0,0,1,7.07,5c2.5,4.34,2.41,10.79-.26,19.18-4,12.63-13.6,15.34-17.44,15.92l10.06,5.66a58.14,58.14,0,0,0,24,7.7l.84.11c1.47.18,2.4,1.38,2.56,3.29.44,5.55-5.92,18-19.64,22-13,3.8-24.89-4.61-30-9.06l2.42,4a34.7,34.7,0,0,0,4.83,6.05c2.95,3.15,5.5,5.87,4.53,10.75-.58,2.89-3.34,5.84-7.37,7.9A28.2,28.2,0,0,1,351.59,192ZM323.21,162.3c.7,8.54,3.58,20.73,14,25.49,9.1,4.17,19.11,4.33,26.78.41,3.77-1.92,6.33-4.61,6.85-7.2.87-4.38-1.4-6.8-4.28-9.87a36.55,36.55,0,0,1-5-6.22l-4.29-7.15.8-.6c.15.17,15,16.16,31.67,11.3,13.21-3.85,19.34-15.69,18.92-21-.08-1-.44-2.23-1.69-2.38l-.83-.1a59.23,59.23,0,0,1-24.37-7.83l-13.1-7.36h1.9c.54,0,13.28-.2,18.11-15.38,2.55-8,2.67-14.35.35-18.38a9.51,9.51,0,0,0-6.41-4.57c-6.28-1.4-19.76,5-26.73,11.32-7.28,6.55-12.2,5.14-12.41,5.07l-.57-.17.27-.53c.14-.26,13.16-26.24,4.91-35.18-3.28-3.55-6.92-5.4-10.81-5.47a15.19,15.19,0,0,0-10.68,4.52c-4.14,4.13-11.26,22.66-12,26.48-.11.53-.35.83-.71.87-.81.09-1.43-1.18-3.42-5.6-2.23-5-5.61-12.48-9.59-16.46-5.21-5.22-14.78-9-20.89-8.23-2.59.32-4.44,1.37-5.49,3.13-4.12,6.85,0,23,5.59,27.22a59,59,0,0,1,10.11,10.11l.9,1.2-1.44-.42c-.91-.26-22.39-6.57-29.56-15.17-2.29-2.74-4.67-3.76-6.92-3-3.22,1.16-5.63,5.93-5.63,9.41v.11c0,.07-1.38,6.75,7.61,17.82s28.06,12.67,28.25,12.68l-.05,1c-.22,0-21.45-.68-29.13,2.12a8.18,8.18,0,0,0-5.59,6.65c-.7,5,2.69,10.59,9.29,15.35,13.75,9.93,28.76,1.41,33-1.44a48.67,48.67,0,0,0,10.6-9.89l.83.55c-.12.21-12,20.69-9.95,31.11a12.84,12.84,0,0,0,6.81,9,19.52,19.52,0,0,0,16.1.64c5.27-2.19,6.59-15.19,6.87-24.24a55.3,55.3,0,0,1,0-9l1,0C323.2,153.62,323.36,157.39,323.21,162.3Z" style="fill: rgb(38, 50, 56); transform-origin: 328.002px 128.74px;" id="el3xnm8vkw80n" class="animable"></path><path d="M373.92,119.26a4.25,4.25,0,0,0-.71-1.58c-4.17-5.59-14.28,7.93-16.87,10.41-5.8,5.56-14,9.43-21.77,11.51-3,.81-5.59,1.44-7.8,2a14.91,14.91,0,0,0-3.18-5.44s-13.36-28.77-20.65-22.46a12.61,12.61,0,0,0-2.33,2.69,39.49,39.49,0,0,1-3.44-8.45c-.92-3.42-2.5-20.07-9-17.34a4.39,4.39,0,0,0-1.44,1,9,9,0,0,0-1.61,2.55c-4.85,10.91-6.66,21.68-2.82,33.34,4.64,14.07,16.25,19.19,25.32,19.84,4.34,3.23,8.75,4.92,12.38,4.57,5.64,6.39,23.45,13.64,38.88.38,9.43-8.1,13.54-18.26,15.1-30A8.39,8.39,0,0,0,373.92,119.26Z" style="fill: rgb(38, 50, 56); transform-origin: 327.157px 125.009px;" id="elempfpszgzck" class="animable"></path><path d="M339.62,160.22c-8.76,0-16.34-3.95-19.85-7.78-3.6.25-8-1.37-12.35-4.6-4.76-.37-19.93-2.92-25.61-20.17-3.53-10.71-2.63-21.42,2.83-33.7a9.24,9.24,0,0,1,1.72-2.7,4.86,4.86,0,0,1,1.6-1.11,3.63,3.63,0,0,1,3.25.09c3.55,1.93,5,10,5.91,14.88.21,1.19.38,2.14.54,2.7a38.12,38.12,0,0,0,3,7.62,12.69,12.69,0,0,1,1.94-2.11,4,4,0,0,1,3.59-.92c7.44,1.59,17.05,21.86,17.81,23.48A15.52,15.52,0,0,1,327.1,141l2-.52c1.6-.4,3.36-.85,5.29-1.37,8.65-2.31,16.3-6.35,21.56-11.39.42-.41,1.07-1.14,1.88-2.06,3.28-3.69,8.73-9.83,12.78-9.83h.17a3.57,3.57,0,0,1,2.78,1.54,4.75,4.75,0,0,1,.79,1.77,8.67,8.67,0,0,1,.06,3.17c-1.76,13.27-6.62,22.92-15.28,30.36A29.54,29.54,0,0,1,339.62,160.22Zm-19.44-8.83.17.2c5.62,6.36,23.14,13.26,38.18.33,8.46-7.27,13.21-16.72,14.94-29.73a7.91,7.91,0,0,0,0-2.82h0a3.67,3.67,0,0,0-.62-1.39,2.6,2.6,0,0,0-2-1.14c-3.63-.19-9.16,6.13-12.15,9.5-.83.93-1.49,1.67-1.94,2.11-5.37,5.15-13.18,9.28-22,11.64-1.94.52-3.7,1-5.3,1.37l-2.5.64-.47.12-.13-.46a14.65,14.65,0,0,0-3.07-5.23l-.09-.14c-.1-.21-10.05-21.47-17.15-23a3,3,0,0,0-2.73.7,12.66,12.66,0,0,0-2.23,2.6l-.46.7-.4-.74a39.61,39.61,0,0,1-3.48-8.56c-.16-.6-.34-1.57-.56-2.78-.79-4.36-2.26-12.48-5.4-14.18a2.62,2.62,0,0,0-2.38,0,4,4,0,0,0-1.28.89,8.13,8.13,0,0,0-1.51,2.41c-5.36,12-6.25,22.52-2.8,33,5.55,16.84,20.45,19.18,24.88,19.5h.15l.11.09c4.32,3.21,8.59,4.8,12,4.47Z" style="fill: rgb(38, 50, 56); transform-origin: 327.118px 125.02px;" id="el5pa8qp8giuw" class="animable"></path><path d="M325.66,130.35s5.43-20.46-3.34-36.75-15.87-7.52-18.38,12.11,3.76,25.06,9.61,31.32S324.83,135.78,325.66,130.35Z" style="fill: rgb(145, 145, 145); transform-origin: 315.347px 112.244px;" id="eldz0ehrvz24" class="animable"></path><path d="M318.1,139.9a6.72,6.72,0,0,1-4.91-2.52l-.91-1c-5.52-5.85-11.24-11.91-8.83-30.76,1.6-12.53,5-20.18,9.35-21,3.18-.58,6.53,2.34,10,8.7,8.62,16,3.61,36.23,3.39,37.09-.58,3.73-3.18,8.19-6.54,9.23A5.33,5.33,0,0,1,318.1,139.9Zm-4.52-54.31a3.05,3.05,0,0,0-.6.06c-3.83.71-7,8.23-8.54,20.12-2.35,18.39,3,24,8.57,30l.91,1c1.77,1.91,3.59,2.58,5.39,2,3-.91,5.34-5.09,5.86-8.44v-.06c.05-.2,5.27-20.46-3.3-36.38C319,88.42,316.11,85.59,313.58,85.59Z" style="fill: rgb(38, 50, 56); transform-origin: 315.36px 112.224px;" id="elf7buoedyf27" class="animable"></path><path d="M329.84,143.72s20.05-5,27.56-28-3.34-23.8-12.11-15.87-15,10.86-22.55,27.15S322.32,144.55,329.84,143.72Z" style="fill: rgb(145, 145, 145); transform-origin: 339.72px 119.609px;" id="elwng15us3flj" class="animable"></path><path d="M326.73,144.41c-2.62,0-5.19-.52-6.6-2.49-2-2.74-1.27-7.69,2.15-15.12,6.13-13.28,11.33-17.65,17.92-23.2,1.52-1.27,3.09-2.6,4.76-4.11,4.69-4.24,9.63-5.74,12.58-3.83,3.7,2.4,3.82,9.59.34,20.23A43.29,43.29,0,0,1,330,144.2h-.07A27.07,27.07,0,0,1,326.73,144.41Zm27.78-48.59c-2.51,0-5.73,1.56-8.88,4.41-1.68,1.53-3.26,2.85-4.79,4.14-6.49,5.46-11.61,9.77-17.65,22.85-3.22,7-4,11.72-2.25,14.12,1.32,1.83,4,2.41,8.81,1.88a42.27,42.27,0,0,0,27.18-27.64c4.49-13.72,2-17.85.06-19.08A4.44,4.44,0,0,0,354.51,95.82Z" style="fill: rgb(38, 50, 56); transform-origin: 339.717px 119.626px;" id="elc1wytwk8um" class="animable"></path><path d="M287.22,86.06a9.26,9.26,0,0,0-1.67,2.7c-5,11.56-6.87,23-2.9,35.33,7.1,22.13,30.07,23.39,36.75,19.21s2.09-7.1-8.36-18c-5.77-6-10.92-13.84-13-22-.95-3.62-2.58-21.26-9.3-18.37A4.33,4.33,0,0,0,287.22,86.06Z" style="fill: rgb(145, 145, 145); transform-origin: 301.516px 114.903px;" id="el23bimy7dpe6" class="animable"></path><path d="M310.78,145.68a30.39,30.39,0,0,1-10.36-1.86c-6.19-2.26-14.38-7.5-18.25-19.58-3.64-11.34-2.71-22.67,2.92-35.68a9.83,9.83,0,0,1,1.76-2.85h0a5.21,5.21,0,0,1,1.65-1.17,3.64,3.64,0,0,1,3.3.07c3.69,2,5.22,10.61,6.13,15.77.22,1.26.4,2.27.55,2.86,1.93,7.36,6.52,15.09,12.92,21.75,1.43,1.49,2.75,2.82,3.94,4,5.14,5.21,8,8.08,7.66,10.73-.16,1.41-1.19,2.63-3.34,4C317.77,144.91,314.56,145.68,310.78,145.68Zm-20.65-60.5a3,3,0,0,0-1.23.28,3.88,3.88,0,0,0-1.32.94h0A8.74,8.74,0,0,0,286,89c-5.53,12.77-6.45,23.88-2.89,35,3.75,11.7,11.66,16.76,17.64,18.95,7.52,2.75,15.08,2.05,18.37,0,1.84-1.15,2.76-2.18,2.88-3.25.25-2.17-2.62-5.08-7.38-9.91q-1.8-1.82-3.95-4c-6.52-6.79-11.2-14.67-13.16-22.19-.17-.64-.35-1.66-.58-3-.82-4.65-2.35-13.3-5.62-15.06A2.43,2.43,0,0,0,290.13,85.18Z" style="fill: rgb(38, 50, 56); transform-origin: 301.515px 114.929px;" id="elyubblo4tod" class="animable"></path><path d="M377.14,115.34a9.17,9.17,0,0,1,0,3.18c-1.61,12.49-5.85,23.25-15.57,31.84-17.43,15.38-37.81,4.71-41.41-2.3s1.84-7.17,16.37-11.16c8-2.2,16.46-6.3,22.44-12.2,2.67-2.63,13.1-17,17.39-11A4.55,4.55,0,0,1,377.14,115.34Z" style="fill: rgb(145, 145, 145); transform-origin: 348.182px 135.244px;" id="ellev7vhebj3" class="animable"></path><path d="M341.82,158.74a30.52,30.52,0,0,1-5.58-.52c-8.18-1.54-14.6-6.27-16.49-9.93-1.15-2.25-1.41-3.83-.83-5.13,1.08-2.43,5-3.45,12.07-5.29q2.47-.65,5.44-1.45c8.92-2.45,16.81-6.74,22.23-12.08.44-.43,1.11-1.2,1.95-2.17,3.42-4,9.15-10.57,13.33-10.42a3.64,3.64,0,0,1,2.87,1.63,4.92,4.92,0,0,1,.81,1.85,9.67,9.67,0,0,1,.06,3.35c-1.81,14.06-6.82,24.27-15.74,32.15C354.87,157,347.69,158.74,341.82,158.74Zm31.95-46c-3.71,0-9.36,6.54-12.41,10.07-.85,1-1.53,1.77-2,2.24-5.53,5.45-13.58,9.83-22.66,12.32-2,.55-3.81,1-5.46,1.45-6.56,1.71-10.52,2.75-11.41,4.74-.44,1-.18,2.33.81,4.26,1.78,3.45,7.92,7.92,15.79,9.41,6.25,1.17,15.64.87,24.85-7.26,8.73-7.71,13.63-17.73,15.41-31.52a9,9,0,0,0,0-3h0A4,4,0,0,0,376,114a2.66,2.66,0,0,0-2.1-1.22Z" style="fill: rgb(38, 50, 56); transform-origin: 348.21px 135.244px;" id="elvo3df2rtzd" class="animable"></path><path d="M325.24,133.28s-13.78-30.49-21.3-23.81-7.51,23.81.84,32.16,18,11.27,22.55,5S325.24,133.28,325.24,133.28Z" style="fill: rgb(145, 145, 145); transform-origin: 313.664px 129.26px;" id="elxybf02hhqkb" class="animable"></path><path d="M320.5,150.51c-4.81,0-10.61-3.07-16.07-8.53-4.29-4.29-6.72-11.16-6.51-18.39.18-6.16,2.26-11.44,5.69-14.49a4,4,0,0,1,3.66-1c7.68,1.64,17.64,23.21,18.4,24.89.66.75,6.61,7.74,2.07,13.94a8.43,8.43,0,0,1-6.41,3.54C321.06,150.5,320.78,150.51,320.5,150.51ZM306.33,109a3,3,0,0,0-2.05.83c-3.24,2.88-5.19,7.9-5.36,13.77-.21,7,2.12,13.57,6.21,17.66,5.5,5.5,11.51,8.57,16.13,8.21a7.42,7.42,0,0,0,5.67-3.14c4.29-5.85-2-12.65-2.05-12.72l-.09-.14c-.1-.23-10.4-22.83-17.73-24.39A3.71,3.71,0,0,0,306.33,109Z" style="fill: rgb(38, 50, 56); transform-origin: 313.671px 129.254px;" id="elzb28bxamk3" class="animable"></path><path d="M301,461.15H187.35a5.62,5.62,0,0,1-5.56-4.78L167.1,360.53H321.26l-14.69,95.84A5.62,5.62,0,0,1,301,461.15Z" style="fill: rgb(255, 255, 255); transform-origin: 244.18px 410.84px;" id="eltyhnmuivmyr" class="animable"></path><path d="M301,461.65H187.35a6.1,6.1,0,0,1-6.06-5.2L166.52,360H321.84l-.09.57-14.68,95.85A6.1,6.1,0,0,1,301,461.65ZM167.69,361l14.59,95.27a5.1,5.1,0,0,0,5.07,4.35H301a5.1,5.1,0,0,0,5.07-4.35L320.67,361Z" style="fill: rgb(38, 50, 56); transform-origin: 244.18px 410.825px;" id="eln18l8d851e" class="animable"></path><g id="elv90renysgs"><circle cx="267.49" cy="400.92" r="16.1" style="fill: rgb(255, 229, 152); transform-origin: 267.49px 400.92px; transform: rotate(-45deg);" class="animable"></circle></g><circle cx="217.03" cy="410.59" r="11.18" style="fill: rgb(255, 229, 152); transform-origin: 217.03px 410.59px;" id="elzeh28mmcnwp" class="animable"></circle><g id="elechufg7argn"><circle cx="261.41" cy="447.8" r="11.18" style="fill: rgb(255, 229, 152); transform-origin: 261.41px 447.8px; transform: rotate(-45deg);" class="animable"></circle></g><path d="M236.3,452.7c-3.56-9.06-7.61-19.34-19.13-22.94-9.19-2.87-21.9.63-37.87,10.38l1.15,7.53c12.79-8.15,26-13.94,34.63-11.23,8.33,2.6,11.43,10.48,14.71,18.83.75,1.91,1.54,3.91,2.42,5.88h7.73A91.48,91.48,0,0,1,236.3,452.7Z" style="fill: rgb(38, 50, 56); transform-origin: 209.62px 444.969px;" id="elkxejogm3i6o" class="animable"></path><path d="M309.61,436.53l1.24-8.09c-8.38,2.36-13.15,9.86-17.83,17.23-3.45,5.43-7,11-12,15.48h9.66a107.1,107.1,0,0,0,8.24-11.73C302.54,443.73,305.53,439,309.61,436.53Z" style="fill: rgb(38, 50, 56); transform-origin: 295.935px 444.795px;" id="elyw0uz2m66s" class="animable"></path><path d="M175.38,414.55c16.39-12.68,37.32-25.55,49.48-21.76,8.33,2.61,11.43,10.49,14.71,18.83,4.05,10.28,8.92,22.66,25.58,22.66a46.61,46.61,0,0,0,11.27-1.55c18-4.51,25.94-17,32.29-27a66.27,66.27,0,0,1,7.14-9.94l1.49-9.77c-6.41,3.18-10.51,9.62-14.53,16-6.28,9.88-12.76,20.09-28.08,23.92-20,5-23.64-4.17-28.64-16.89-3.57-9.06-7.62-19.34-19.14-22.94-11.09-3.46-27.31,2.34-48.23,17.24-1.55,1.1-3.07,2.22-4.55,3.33Z" style="fill: rgb(38, 50, 56); transform-origin: 245.755px 409.71px;" id="el9xwpljjg0q4" class="animable"></path><polygon points="319.05 374.96 321.26 360.53 167.1 360.53 169.31 374.96 319.05 374.96" style="fill: rgb(38, 50, 56); transform-origin: 244.18px 367.745px;" id="elalzfjrub69" class="animable"></polygon><path d="M319.48,375.46H168.88L166.52,360H321.84Zm-149.74-1H318.62L320.67,361h-153Z" style="fill: rgb(38, 50, 56); transform-origin: 244.18px 367.73px;" id="el8gfzgbodgcv" class="animable"></path><rect x="156.05" y="343.66" width="173.35" height="25.01" rx="4.91" style="fill: rgb(38, 50, 56); transform-origin: 242.725px 356.165px;" id="ellk65qjipmj8" class="animable"></rect><path d="M324.49,369.17H161a5.42,5.42,0,0,1-5.42-5.41V348.57a5.42,5.42,0,0,1,5.42-5.41H324.49a5.42,5.42,0,0,1,5.41,5.41v15.19A5.42,5.42,0,0,1,324.49,369.17ZM161,344.16a4.42,4.42,0,0,0-4.42,4.41v15.19a4.42,4.42,0,0,0,4.42,4.41H324.49a4.42,4.42,0,0,0,4.41-4.41V348.57a4.42,4.42,0,0,0-4.41-4.41Z" style="fill: rgb(38, 50, 56); transform-origin: 242.74px 356.165px;" id="el7ji5dmhxpu8" class="animable"></path><path d="M320.18,274.7s13.51,7.05,21.15,3.52,15.52-24.05,29-30c16.64-7.34,43,8.8,30,43.27-9.16,24.14-24.26,40.57-52.85,36.62-24.13-3.33-43.09-27-43.09-38.75" style="fill: rgb(255, 229, 152); transform-origin: 354.102px 287.588px;" id="eld07ndy3k1ys" class="animable"></path><path d="M355.79,329.23a62.18,62.18,0,0,1-8.44-.6c-25.15-3.47-43.53-27.87-43.53-39.25h1c0,11.08,18,34.86,42.66,38.26,25,3.44,41.61-8.09,52.31-36.3,5.91-15.57,4.21-29.31-4.65-37.72-6.8-6.45-16.71-8.42-24.64-4.92-7.58,3.34-13.34,11.37-18.43,18.46-3.84,5.34-7.15,10-10.53,11.52-7.78,3.58-21-3.25-21.59-3.54l.46-.89c.13.07,13.38,6.9,20.71,3.52,3.14-1.45,6.38-6,10.14-11.2,5.16-7.19,11-15.33,18.84-18.79,8.3-3.66,18.64-1.6,25.73,5.12,9.17,8.69,10.95,22.83,4.9,38.79C391.08,317.12,376.68,329.23,355.79,329.23Z" style="fill: rgb(38, 50, 56); transform-origin: 354.041px 287.609px;" id="elpmo6o4ot1h" class="animable"></path><path d="M396.23,266.18c-1-5.52-3-9.38-5.7-10.84l.48-.88c3,1.61,5.17,5.72,6.2,11.55Z" style="fill: rgb(38, 50, 56); transform-origin: 393.87px 260.32px;" id="elotv69d1tx0n" class="animable"></path><path d="M354.37,320.5a36.07,36.07,0,0,1-8.49-1c-.61-.14-1.21-.3-1.8-.46l.26-1c.58.15,1.17.31,1.78.45C373.2,325,391.7,296.83,395,286.37a43.43,43.43,0,0,0,1.81-13.54l1,0A44.54,44.54,0,0,1,396,286.67C392.81,296.64,377.68,320.5,354.37,320.5Z" style="fill: rgb(38, 50, 56); transform-origin: 370.953px 296.665px;" id="el3rzztej3sy5" class="animable"></path><path d="M338.34,317.11c-21-8.14-25.08-24.9-25.12-25.07l1-.22c0,.16,4.05,16.42,24.5,24.36Z" style="fill: rgb(38, 50, 56); transform-origin: 325.97px 304.465px;" id="elok8wbzlq97" class="animable"></path><path d="M362.06,260.42l-.73-.7a21.74,21.74,0,0,1,8.39-5.71l.33.94A20.57,20.57,0,0,0,362.06,260.42Z" style="fill: rgb(38, 50, 56); transform-origin: 365.69px 257.215px;" id="elakrd36y164w" class="animable"></path><path d="M338.66,289.16c-8.89,0-18.2-7.74-18.61-8.08l.64-.77c.1.09,10.34,8.6,19.19,7.79,3.91-.35,7.24-6.24,11.1-13.07,1.24-2.18,2.52-4.44,3.89-6.66l.85.52c-1.36,2.21-2.64,4.46-3.87,6.64-4,7.06-7.44,13.17-11.88,13.57C339.53,289.14,339.09,289.16,338.66,289.16Z" style="fill: rgb(38, 50, 56); transform-origin: 337.885px 278.765px;" id="elg6trpp5rh7k" class="animable"></path></g><defs>     <filter id="active" height="200%">         <feMorphology in="SourceAlpha" result="DILATED" operator="dilate" radius="2"></feMorphology>                <feFlood flood-color="#32DFEC" flood-opacity="1" result="PINK"></feFlood>        <feComposite in="PINK" in2="DILATED" operator="in" result="OUTLINE"></feComposite>        <feMerge>            <feMergeNode in="OUTLINE"></feMergeNode>            <feMergeNode in="SourceGraphic"></feMergeNode>        </feMerge>    </filter>    <filter id="hover" height="200%">        <feMorphology in="SourceAlpha" result="DILATED" operator="dilate" radius="2"></feMorphology>                <feFlood flood-color="#ff0000" flood-opacity="0.5" result="PINK"></feFlood>        <feComposite in="PINK" in2="DILATED" operator="in" result="OUTLINE"></feComposite>        <feMerge>            <feMergeNode in="OUTLINE"></feMergeNode>            <feMergeNode in="SourceGraphic"></feMergeNode>        </feMerge>            <feColorMatrix type="matrix" values="0   0   0   0   0                0   1   0   0   0                0   0   0   0   0                0   0   0   1   0 "></feColorMatrix>    </filter></defs></svg>