<svg class="animated" id="freepik_stories-breathing-exercise" xmlns="http://www.w3.org/2000/svg" viewBox="0 0 500 500" version="1.1" xmlns:xlink="http://www.w3.org/1999/xlink" xmlns:svgjs="http://svgjs.com/svgjs"><style>svg#freepik_stories-breathing-exercise:not(.animated) .animable {opacity: 0;}svg#freepik_stories-breathing-exercise.animated #freepik--Floor--inject-39 {animation: 1s 1 forwards cubic-bezier(.36,-0.01,.5,1.38) zoomIn;animation-delay: 0s;}svg#freepik_stories-breathing-exercise.animated #freepik--Plants--inject-39 {animation: 1s 1 forwards cubic-bezier(.36,-0.01,.5,1.38) slideDown;animation-delay: 0s;}svg#freepik_stories-breathing-exercise.animated #freepik--Clouds--inject-39 {animation: 1s 1 forwards cubic-bezier(.36,-0.01,.5,1.38) slideDown;animation-delay: 0s;}svg#freepik_stories-breathing-exercise.animated #freepik--Shadows--inject-39 {animation: 1s 1 forwards cubic-bezier(.36,-0.01,.5,1.38) slideDown;animation-delay: 0s;}svg#freepik_stories-breathing-exercise.animated #freepik--Character--inject-39 {animation: 1s 1 forwards cubic-bezier(.36,-0.01,.5,1.38) fadeIn;animation-delay: 0s;}svg#freepik_stories-breathing-exercise.animated #freepik--Breath--inject-39 {animation: 1s 1 forwards cubic-bezier(.36,-0.01,.5,1.38) slideUp,6s Infinite  linear heartbeat;animation-delay: 0s,1s;}            @keyframes zoomIn {                0% {                    opacity: 0;                    transform: scale(0.5);                }                100% {                    opacity: 1;                    transform: scale(1);                }            }                    @keyframes slideDown {                0% {                    opacity: 0;                    transform: translateY(-30px);                }                100% {                    opacity: 1;                    transform: translateY(0);                }            }                    @keyframes fadeIn {                0% {                    opacity: 0;                }                100% {                    opacity: 1;                }            }                    @keyframes slideUp {                0% {                    opacity: 0;                    transform: translateY(30px);                }                100% {                    opacity: 1;                    transform: inherit;                }            }                    @keyframes heartbeat {                0% {                    transform: scale(1);                }                10% {                    transform: scale(1.1);                }                30% {                    transform: scale(1);                }                40% {                    transform: scale(1);                }                50% {                    transform: scale(1.1);                }                60% {                    transform: scale(1);                }                100% {                    transform: scale(1);                }            }        </style><g id="freepik--Floor--inject-39" class="animable" style="transform-origin: 250.015px 339.073px;"><g id="freepik--Bush--inject-39" class="animable" style="transform-origin: 250.015px 272.456px;"><path d="M484.28,320.18c6.83-4.88,6.78-17.5-1.9-20.21,6-6,4.18-18.94-4.51-19.74,2.13-5.3,1.08-12.57-5.73-13.91,2.16-6.5-3.86-11-9.9-8.68-.27-6.85-10-7.25-12.16-2.42.11-2.66-3.86-7.57-6.41-7.58,4.4-3.45,3.19-10.36-.59-11.28,5.14-3.89,2.38-12.79-3.75-12.71,4.11-6.48-4.67-13.26-10.12-11.26,3.09-7.29-11.35-13.09-14.47-5.37.12-.3-1.21-1.57-1.43-1.78a9.31,9.31,0,0,0-1.87-1.38,11.51,11.51,0,0,0-4.51-1.35,15.07,15.07,0,0,0-9.44,2.24,11.17,11.17,0,0,0-3.65,3.65,9.14,9.14,0,0,0-1,2.32c-.3,1.14,0,2.25-.3,3.36a7.34,7.34,0,0,0-8.91,5.09,19.84,19.84,0,0,0-2-5,8.56,8.56,0,0,0-3.26-3.09c-1.46-.76-2.7-1.69-4.45-1.58,5.24-6.72-5.39-14.54-11-9.21-2.63-6.17-12-4.87-11.39,2.37-2.09-3.77-6.17-3.51-9.53-1.49-4.64,2.78-4,7.74-1.47,11.76-1.92-2.3-7.79-3.56-8.68.24a4.59,4.59,0,0,0-6.62-.76c-1.73-6.23-12.89-7-15,.64-4.3-2.48-8.85,4.53-7.75,8.48l-48.59-.11v0h-7.66v0l-48.59.11c1.1-3.95-3.45-11-7.75-8.48-2.11-7.68-13.27-6.87-15-.64a4.59,4.59,0,0,0-6.62.76c-.89-3.8-6.76-2.54-8.68-.24,2.55-4,3.17-9-1.47-11.76-3.36-2-7.44-2.28-9.53,1.49.62-7.24-8.77-8.54-11.39-2.37-5.65-5.33-16.28,2.49-11,9.21-1.75-.11-3,.82-4.45,1.58a8.56,8.56,0,0,0-3.26,3.09,19.84,19.84,0,0,0-2,5,7.34,7.34,0,0,0-8.91-5.09c-.31-1.11,0-2.22-.3-3.36a9.14,9.14,0,0,0-1-2.32,11.17,11.17,0,0,0-3.65-3.65,15.07,15.07,0,0,0-9.44-2.24,11.51,11.51,0,0,0-4.51,1.35,9.31,9.31,0,0,0-1.87,1.38c-.22.21-1.55,1.48-1.43,1.78-3.12-7.72-17.56-1.92-14.47,5.37-5.45-2-14.23,4.78-10.12,11.26-6.13-.08-8.89,8.82-3.75,12.71-3.78.92-5,7.83-.59,11.28-2.55,0-6.52,4.92-6.41,7.58-2.18-4.83-11.9-4.43-12.16,2.42-6-2.33-12.06,2.18-9.9,8.68-6.81,1.34-7.86,8.61-5.73,13.91C13.44,281,11.63,294,17.62,300c-8.68,2.71-8.73,15.33-1.9,20.21-4.52,2.16-5,12.65,2.4,15.55-.19.17-.37.35-.54.53-4.34,4.64-.72,12.27,5.63,12.27H476.79c6.35,0,10-7.63,5.63-12.27-.17-.18-.35-.36-.54-.53C489.25,332.83,488.8,322.34,484.28,320.18Z" style="fill: rgb(235, 235, 235); transform-origin: 250px 272.456px;" id="eltzafsciw6w" class="animable"></path><g id="freepik--bush--inject-39" class="animable" style="transform-origin: 81.6554px 280.315px;"><path d="M77.36,217.56a6.93,6.93,0,0,1,11.11,1,6.94,6.94,0,0,1,11.26,4A8.27,8.27,0,0,0,86,224.16,4.76,4.76,0,0,1,86,223a6.91,6.91,0,0,1,.94-2.68,7.36,7.36,0,0,0-.72-.76,8.27,8.27,0,0,0-9.57-1A6.17,6.17,0,0,1,77.36,217.56Z" style="fill: rgb(224, 224, 224); transform-origin: 88.19px 219.693px;" id="eleh8zxb11ns" class="animable"></path><path d="M151.92,215.69a5.36,5.36,0,0,0-7.57-.45,5,5,0,0,0-1,1.19,5.37,5.37,0,0,0-8.69,3.08,6.38,6.38,0,0,1,10.61,1.27,4.07,4.07,0,0,0,0-.92,5.32,5.32,0,0,0-.72-2.07,6,6,0,0,1,.55-.58,6.38,6.38,0,0,1,7.38-.78A4.65,4.65,0,0,0,151.92,215.69Z" style="fill: rgb(224, 224, 224); transform-origin: 143.57px 217.333px;" id="elynq4ov74xz" class="animable"></path><path d="M69.86,254.66c-.79-1.08-4.32-.65-5.45-.43a7.61,7.61,0,0,0-5.79,10,6.16,6.16,0,0,0-6.83,8.88c-4.48-1-11.36-.23-14.86,3.17-1.92,1.86-2.66,5.06-1.2,7.3-.27-.42-3.8-.46-6.7,1.34a6.71,6.71,0,0,0-3,5.3c-.12,2.36,1,5.55,2.06,6.68-.23-.44-2.95,1.45-3.19,1.67a6.93,6.93,0,0,0-1.91,3,3.72,3.72,0,0,0,3.25,4.64,10.14,10.14,0,0,0-4.48,3.53,5.63,5.63,0,0,0-.5,5.5c1.17,2.26,3.92,3.09,6.39,3.7a7,7,0,0,0-1.76,6.24,4.85,4.85,0,0,0,5,3.67A6.69,6.69,0,0,0,34,341.13c-1.25-.07-2.19,2.52-2.5,3.35-.57,1.48-1.35,2.55-2.1,4H23.21c-6.35,0-10-7.63-5.63-12.27.17-.18.35-.36.54-.53-7.37-2.9-6.92-13.39-2.4-15.55-6.83-4.88-6.78-17.5,1.9-20.21-6-6-4.18-18.94,4.51-19.74-2.13-5.3-1.08-12.57,5.73-13.91-2.16-6.5,3.86-11,9.9-8.68.27-6.85,10-7.25,12.16-2.42-.11-2.66,3.86-7.57,6.41-7.58-4.4-3.45-3.19-10.36.59-11.28-5.14-3.89-2.38-12.79,3.75-12.71-3.26-5.15,1.6-10.48,6.47-11.45-1.77,2-3.38,4.59-2.09,7.3,1.15,2.43,4.28,2.86,6.35,3.87-4.93,1.67-7.18,6.61-3.52,10.94-5,.63-5.66,7.3-3.66,10,1.24-1.07,3.8-1.31,5.67-.95,2.51.47,3.87,1.75,6.13,4.27C71.56,244.19,67,250.78,69.86,254.66Z" style="fill: rgb(224, 224, 224); transform-origin: 43.4254px 280.315px;" id="el56sy74gquax" class="animable"></path></g><path d="M420.43,227.68a7,7,0,0,0-9.82-.59,6.69,6.69,0,0,0-1.28,1.55,6.95,6.95,0,0,0-11.26,4,8.28,8.28,0,0,1,13.76,1.64,5.35,5.35,0,0,0-.05-1.19,6.65,6.65,0,0,0-.94-2.68,6.52,6.52,0,0,1,.73-.76,8.24,8.24,0,0,1,9.56-1A5.35,5.35,0,0,0,420.43,227.68Z" style="fill: rgb(224, 224, 224); transform-origin: 409.6px 229.818px;" id="elu9i2k69aedp" class="animable"></path><path d="M348.08,215.69a5.36,5.36,0,0,1,7.57-.45,5,5,0,0,1,1,1.19,5.37,5.37,0,0,1,8.69,3.08,6.38,6.38,0,0,0-10.61,1.27,4.07,4.07,0,0,1,0-.92,5.32,5.32,0,0,1,.72-2.07,6,6,0,0,0-.55-.58,6.38,6.38,0,0,0-7.38-.78A4.65,4.65,0,0,1,348.08,215.69Z" style="fill: rgb(224, 224, 224); transform-origin: 356.43px 217.333px;" id="elhwddltjic8d" class="animable"></path><path d="M430.14,254.66c.79-1.08,4.32-.65,5.45-.43a7.61,7.61,0,0,1,5.79,10,6.16,6.16,0,0,1,6.83,8.88c4.48-1,11.36-.23,14.86,3.17,1.92,1.86,2.66,5.06,1.2,7.3.27-.42,3.8-.46,6.7,1.34a6.71,6.71,0,0,1,3,5.3c.12,2.36-1,5.55-2.06,6.68.23-.44,2.95,1.45,3.19,1.67a6.93,6.93,0,0,1,1.91,3,3.72,3.72,0,0,1-3.25,4.64,10.14,10.14,0,0,1,4.48,3.53,5.63,5.63,0,0,1,.5,5.5c-1.17,2.26-3.92,3.09-6.39,3.7a7,7,0,0,1,1.76,6.24,4.85,4.85,0,0,1-5,3.67A6.69,6.69,0,0,1,466,341.13c1.25-.07,2.19,2.52,2.5,3.35.57,1.48,1.35,2.55,2.1,4h6.22c6.35,0,10-7.63,5.63-12.27-.17-.18-.35-.36-.54-.53,7.37-2.9,6.92-13.39,2.4-15.55,6.83-4.88,6.78-17.5-1.9-20.21,6-6,4.18-18.94-4.51-19.74,2.13-5.3,1.08-12.57-5.73-13.91,2.16-6.5-3.86-11-9.9-8.68-.27-6.85-10-7.25-12.16-2.42.11-2.66-3.86-7.57-6.41-7.58,4.4-3.45,3.19-10.36-.59-11.28,5.14-3.89,2.38-12.79-3.75-12.71,3.26-5.15-1.6-10.48-6.47-11.45,1.77,2,3.38,4.59,2.09,7.3-1.15,2.43-4.28,2.86-6.35,3.87,4.93,1.67,7.18,6.61,3.52,10.94,5,.63,5.66,7.3,3.66,10-1.24-1.07-3.8-1.31-5.67-.95-2.51.47-3.87,1.75-6.13,4.27C428.44,244.19,433,250.78,430.14,254.66Z" style="fill: rgb(224, 224, 224); transform-origin: 456.605px 280.315px;" id="elic8z4yyc249" class="animable"></path></g><path id="freepik--floor--inject-39" d="M88,256.07c-89.45,51.65-89.45,135.38,0,187s234.49,51.64,323.94,0,89.45-135.38,0-187S177.48,204.43,88,256.07Z" style="fill: rgb(245, 245, 245); transform-origin: 249.97px 349.57px;" class="animable"></path></g><g id="freepik--Plants--inject-39" class="animable" style="transform-origin: 246.534px 219.139px;"><g id="freepik--plants--inject-39" class="animable" style="transform-origin: 423.326px 219.139px;"><path d="M424.42,195.12c-7.46,10.72-16.42,31.7-17.09,58.35q-6.31-3.45-13-6.57c-1.65-10.21-3.42-26-1.84-40.83,3.68-34.51,26.4-47.5,35-44.52S438.71,174.57,424.42,195.12Z" style="fill: rgb(186, 104, 200); transform-origin: 413.207px 207.304px;" id="el6qh6eexwqsl" class="animable"></path><g id="elyn44tc4gnin"><g style="opacity: 0.65; transform-origin: 413.207px 207.304px;" class="animable"><path d="M424.42,195.12c-7.46,10.72-16.42,31.7-17.09,58.35q-6.31-3.45-13-6.57c-1.65-10.21-3.42-26-1.84-40.83,3.68-34.51,26.4-47.5,35-44.52S438.71,174.57,424.42,195.12Z" style="fill: rgb(255, 255, 255); transform-origin: 413.207px 207.304px;" id="elpfghu4easi" class="animable"></path></g></g><path d="M402.94,250.87l.11,0a.76.76,0,0,0,.61-.89c-6.05-31.83,5.07-67.6,18.84-82.49a.76.76,0,1,0-1.12-1c-14,15.15-25.36,51.5-19.22,83.81A.76.76,0,0,0,402.94,250.87Z" style="fill: rgb(255, 255, 255); transform-origin: 411.616px 208.506px;" id="ele54zuomya8" class="animable"></path><path d="M449.64,241.1c-2.36,2-4.94,4.22-5.18,7.28a11.1,11.1,0,0,0,.88,4.44l1.5,4.38a33.45,33.45,0,0,1,1.32,4.52,14.35,14.35,0,0,1-.84,8.66,15.29,15.29,0,0,1-4.79,6.09l-.85.67A184.26,184.26,0,0,0,412,256.07q-6-3.47-12.32-6.61c-.21-1-.38-1.94-.52-3a9.08,9.08,0,0,1,.8-5.61c2.12-3.94,6.16-5.77,7.35-10.08,1.35-4.88-3.12-10.23-1.09-14.86,1-2.35,3.49-3.74,5.93-4.52s5-1.12,7.37-2.2c6-2.79,9-9.83,14.64-13.35a14.43,14.43,0,0,1,5.74-2.36c2.21-.25,4.66-.17,6.37,1.25,2.09,1.73,2.38,4.9,1.62,7.51s-2.36,4.87-3.53,7.31a9.64,9.64,0,0,0-1.06,3.61,9,9,0,0,0,2.13,5.59c1.7,2.26,3.87,4.11,5.73,6.23s3.45,4.68,3.61,7.5C454.94,236.11,452.25,238.93,449.64,241.1Z" style="fill: rgb(186, 104, 200); transform-origin: 426.899px 235.255px;" id="eldk0norcrkzw" class="animable"></path><g id="eluvpaky1fenf"><g style="opacity: 0.3; transform-origin: 426.899px 235.255px;" class="animable"><path d="M449.64,241.1c-2.36,2-4.94,4.22-5.18,7.28a11.1,11.1,0,0,0,.88,4.44l1.5,4.38a33.45,33.45,0,0,1,1.32,4.52,14.35,14.35,0,0,1-.84,8.66,15.29,15.29,0,0,1-4.79,6.09l-.85.67A184.26,184.26,0,0,0,412,256.07q-6-3.47-12.32-6.61c-.21-1-.38-1.94-.52-3a9.08,9.08,0,0,1,.8-5.61c2.12-3.94,6.16-5.77,7.35-10.08,1.35-4.88-3.12-10.23-1.09-14.86,1-2.35,3.49-3.74,5.93-4.52s5-1.12,7.37-2.2c6-2.79,9-9.83,14.64-13.35a14.43,14.43,0,0,1,5.74-2.36c2.21-.25,4.66-.17,6.37,1.25,2.09,1.73,2.38,4.9,1.62,7.51s-2.36,4.87-3.53,7.31a9.64,9.64,0,0,0-1.06,3.61,9,9,0,0,0,2.13,5.59c1.7,2.26,3.87,4.11,5.73,6.23s3.45,4.68,3.61,7.5C454.94,236.11,452.25,238.93,449.64,241.1Z" style="fill: rgb(255, 255, 255); transform-origin: 426.899px 235.255px;" id="el7wq4w7y0tgd" class="animable"></path></g></g><path d="M438.64,200.5c-8.24,8.53-18.45,34.59-19,60.23-.47-.31-.93-.61-1.41-.9.78-25.72,11.06-51.73,19.37-60.34a.72.72,0,0,1,1,0A.72.72,0,0,1,438.64,200.5Z" style="fill: rgb(255, 255, 255); transform-origin: 428.529px 230.009px;" id="ele5zukwv315h" class="animable"></path><path d="M422.15,236.67a.57.57,0,0,0,.22,0c9.07-3.31,20.53-4.4,20.65-4.41a.71.71,0,0,0,.65-.78.7.7,0,0,0-.78-.66c-.12,0-11.77,1.11-21,4.49a.72.72,0,0,0,.28,1.4Z" style="fill: rgb(255, 255, 255); transform-origin: 432.538px 233.763px;" id="elvntc1q2rrla" class="animable"></path></g><g id="freepik--plants--inject-39" class="animable" style="transform-origin: 65.2612px 215.297px;"><path d="M90.92,254.44C90,255,89,255.52,88,256.07Q83,259,78.35,262a164.53,164.53,0,0,0-3.7-21c-7.59-32-22.83-41.55-30.22-54.16-7.77-13.28-.53-23,10.85-22.2C66.3,165.4,79.13,175,86.05,195,93.78,217.38,92.77,240.33,90.92,254.44Z" style="fill: rgb(186, 104, 200); transform-origin: 66.7123px 213.297px;" id="elryy1j7q45gi" class="animable"></path><g id="el8lcr0gjgn4c"><path d="M90.92,254.44C90,255,89,255.52,88,256.07Q83,259,78.35,262a164.53,164.53,0,0,0-3.7-21c-7.59-32-22.83-41.55-30.22-54.16-7.77-13.28-.53-23,10.85-22.2C66.3,165.4,79.13,175,86.05,195,93.78,217.38,92.77,240.33,90.92,254.44Z" style="fill: rgb(255, 255, 255); opacity: 0.5; transform-origin: 66.7123px 213.297px;" class="animable"></path></g><path d="M82.93,259a.55.55,0,0,1-.49-.62c4.49-39.83-14.22-73.48-28.93-84.65a.56.56,0,1,1,.68-.89c14.93,11.33,33.9,45.4,29.36,85.67A.55.55,0,0,1,82.93,259Z" style="fill: rgb(255, 255, 255); transform-origin: 68.7623px 215.865px;" id="elbx7zqqsr0n" class="animable"></path><path d="M84.05,258.42Q78,262.1,72.53,266c-2-6.65-4.94-13-12-20.95-9.82-11-24.28-20.81-22-29.67s13.75-9.23,22-4.27C67.78,215.39,83,232.57,84.05,258.42Z" style="fill: rgb(186, 104, 200); transform-origin: 61.1699px 236.957px;" id="elxsurtx81k99" class="animable"></path><g id="el8q0e4aqwu2m"><path d="M84.05,258.42Q78,262.1,72.53,266c-2-6.65-4.94-13-12-20.95-9.82-11-24.28-20.81-22-29.67s13.75-9.23,22-4.27C67.78,215.39,83,232.57,84.05,258.42Z" style="fill: rgb(255, 255, 255); opacity: 0.65; transform-origin: 61.1699px 236.957px;" class="animable"></path></g><path d="M78.91,261.66c-.36.22-.72.45-1.07.69-1.73-19-19.47-42.55-28.7-47.07a.56.56,0,1,1,.5-1C59.22,219,76.89,242.19,78.91,261.66Z" style="fill: rgb(255, 255, 255); transform-origin: 63.8552px 238.278px;" id="elwwzhcsopyyf" class="animable"></path></g></g><g id="freepik--Clouds--inject-39" class="animable" style="transform-origin: 243.588px 72.2801px;"><path id="freepik--Cloud--inject-39" d="M141.73,96.41a13.41,13.41,0,0,0-4.53-.84c-1.47-.12-1.94-.41-2.22-.72A10.83,10.83,0,0,0,122,91c-.86-3.51-5.12-6.56-9.8-5.54.16-4.57-5.67-9.48-10.92-10.59-5-1.07-9.41-.62-12.27,2.68-3.07-6-15.11-7.68-21.62-4.51-3.75,1.82-6.93,3.7-8.48,7.13A14.23,14.23,0,0,0,57.48,87c-2.54-2.23-7.62-2.84-11-1.53-3.66,1.42-3.93,4.17-4.12,7a12.79,12.79,0,0,0-6.65-.12c-2.3.69-3.63,2.49-3.31,4-1.83-.1-6.17,1.38-5.67,3.3.56,2.16,5.52,1.94,7.37,1.87a33.19,33.19,0,0,0,5.18-.81,7.91,7.91,0,0,0,2.7.51c3.16,0,4.49-1.37,5-2.55,1.54,3.24,7,5.72,10.9,6.71,7.3,1.87,17.62.73,22.12-4.73a8.13,8.13,0,0,0,2.17,2.65A12.6,12.6,0,0,0,88.91,106c3,.28,11,.66,13.31-4.1,1.6,3.16,8.76,4.61,14.21,3.83a21.91,21.91,0,0,0,6.1-1.84,35.6,35.6,0,0,0,3.5-2.1c1.07-.64,1.56-.63,3-.2,3.74,1.12,8.07,1.58,11.89,0C144,100.25,144.59,97.7,141.73,96.41Z" style="fill: rgb(245, 245, 245); transform-origin: 85.1367px 88.8413px;" class="animable"></path><path id="freepik--cloud--inject-39" d="M436.55,61.65a11.57,11.57,0,0,0-3.92-.73c-1.27-.1-1.67-.35-1.92-.62A9.37,9.37,0,0,0,419.47,57c-.74-3-4.42-5.68-8.47-4.79.14-4-4.91-8.19-9.44-9.16-4.35-.92-8.14-.53-10.62,2.32-2.65-5.18-13.06-6.64-18.69-3.9-3.24,1.58-6,3.2-7.33,6.17a12.34,12.34,0,0,0-1.22,5.9c-2.19-1.94-6.59-2.46-9.52-1.33-3.16,1.22-3.4,3.61-3.56,6a10.93,10.93,0,0,0-5.75-.1c-2,.59-3.14,2.15-2.87,3.41-1.57-.08-5.33,1.19-4.89,2.85.48,1.87,4.77,1.68,6.37,1.62a30,30,0,0,0,4.48-.7,7,7,0,0,0,2.33.44c2.73,0,3.88-1.19,4.32-2.2,1.33,2.8,6.08,4.94,9.43,5.79,6.31,1.62,15.24.64,19.12-4.08A7,7,0,0,0,385,67.53a10.86,10.86,0,0,0,5.84,2.36c2.59.25,9.55.58,11.51-3.54,1.38,2.74,7.58,4,12.28,3.32A19.47,19.47,0,0,0,420,68.08a33.73,33.73,0,0,0,3-1.82,2.51,2.51,0,0,1,2.58-.18c3.23,1,7,1.37,10.28,0C438.47,65,439,62.76,436.55,61.65Z" style="fill: rgb(245, 245, 245); transform-origin: 387.602px 55.079px;" class="animable"></path><path id="freepik--cloud--inject-39" d="M166.05,51.47a8.35,8.35,0,0,0-2.74-.5c-.89-.07-1.17-.25-1.34-.44a6.54,6.54,0,0,0-7.86-2.32,5,5,0,0,0-5.93-3.35c.1-2.77-3.43-5.73-6.6-6.41s-5.69-.37-7.42,1.62c-1.86-3.62-9.14-4.64-13.07-2.72-2.27,1.1-4.19,2.23-5.13,4.31a8.62,8.62,0,0,0-.85,4.12,7.26,7.26,0,0,0-6.66-.92c-2.21.85-2.38,2.52-2.49,4.21a7.67,7.67,0,0,0-4-.07c-1.39.41-2.19,1.5-2,2.39-1.1-.06-3.73.83-3.43,2s3.34,1.17,4.46,1.13A20.05,20.05,0,0,0,104.1,54a5,5,0,0,0,1.63.31c1.91,0,2.72-.83,3-1.54.93,2,4.24,3.45,6.58,4.05C119.76,58,126,57.28,128.72,54a5,5,0,0,0,1.31,1.6,7.68,7.68,0,0,0,4.08,1.65c1.82.17,6.68.4,8-2.48,1,1.92,5.3,2.79,8.59,2.32A13.49,13.49,0,0,0,154.44,56a22.85,22.85,0,0,0,2.12-1.27,1.75,1.75,0,0,1,1.8-.13,10.75,10.75,0,0,0,7.19,0C167.39,53.8,167.77,52.26,166.05,51.47Z" style="fill: rgb(245, 245, 245); transform-origin: 131.831px 46.8744px;" class="animable"></path><path id="freepik--cloud--inject-39" d="M459.43,102.59a7.51,7.51,0,0,0-2.61-.48c-.84-.07-1.11-.24-1.27-.42a6.23,6.23,0,0,0-7.48-2.21,4.77,4.77,0,0,0-5.63-3.19c.09-2.62-3.27-5.45-6.28-6.09s-5.41-.36-7.06,1.54c-1.77-3.44-8.69-4.42-12.43-2.59-2.16,1-4,2.12-4.88,4.1a8.2,8.2,0,0,0-.81,3.92,6.94,6.94,0,0,0-6.33-.88c-2.1.82-2.26,2.4-2.37,4a7.37,7.37,0,0,0-3.82-.07c-1.33.39-2.09,1.43-1.91,2.27-1.05,0-3.54.79-3.26,1.9s3.18,1.12,4.24,1.08a20.85,20.85,0,0,0,3-.47,4.55,4.55,0,0,0,1.55.29c1.82,0,2.59-.79,2.88-1.46.88,1.86,4,3.28,6.26,3.85,4.2,1.08,10.14.42,12.72-2.71a4.73,4.73,0,0,0,1.25,1.52,7.24,7.24,0,0,0,3.89,1.57c1.72.16,6.35.39,7.65-2.36.92,1.83,5,2.66,8.17,2.21a12.54,12.54,0,0,0,3.51-1.06,19.44,19.44,0,0,0,2-1.21,1.68,1.68,0,0,1,1.72-.11,10.29,10.29,0,0,0,6.84,0C460.71,104.8,461.07,103.33,459.43,102.59Z" style="fill: rgb(245, 245, 245); transform-origin: 426.877px 98.2033px;" class="animable"></path></g><g id="freepik--Shadows--inject-39" class="animable" style="transform-origin: 255.6px 366.14px;"><ellipse id="freepik--Shadow--inject-39" cx="255.6" cy="366.14" rx="142.46" ry="82.25" style="fill: rgb(224, 224, 224); transform-origin: 255.6px 366.14px;" class="animable"></ellipse></g><g id="freepik--Character--inject-39" class="animable" style="transform-origin: 249.714px 245.356px;"><g id="freepik--character--inject-39" class="animable" style="transform-origin: 249.714px 245.356px;"><g id="freepik--Bottom--inject-39" class="animable" style="transform-origin: 263.17px 354.767px;"><path d="M386.24,330c-2.65,15.31-13.69,22.14-24.77,27.49-13.84,6.71-39,15.68-57.2,22.81-6.61,2.58-12.3,4.92-16.24,6.82-9.38,3.87-19.29,10.07-26.9,15.73-1.93,1.44-3.61,3.19-5.43,4.76-3.64,3.14-7.33,6.24-11.11,9.2s-7.65,5.88-11.71,8.62a49.73,49.73,0,0,1-8.42,4.48,29.14,29.14,0,0,1-4.58,1.39c-.78.17-1.57.31-2.36.41a4.39,4.39,0,0,1-2.19,0,12.17,12.17,0,0,0-2.39-.79,8.05,8.05,0,0,0-2.06.24,3.34,3.34,0,0,1-2-.14c-.82-.41-1.29-1.36-2.14-1.71a7.48,7.48,0,0,0-2.42-.15,3.39,3.39,0,0,1-2.2-1.09,4.06,4.06,0,0,1-.68-1.07c0-.08-.41-.87-.29-.87-3,.08-4.37-.31-4.71-1.19-1.51-3.9,2.3-8.8,6.79-10.65,2.12-5.55,5.48-10.27,13.66-16,8.76-6.08,17.44-7.26,20.65-21.75,2.82-12.77,11.65-16.57,18.38-15.41,6.35,1.1,12.58,1,17.07-2.27a52.16,52.16,0,0,0,7.46-6.51c.92-.95,1.91-2,3.09-3.27l-20.58-1.51V336l28.14-60c10.18,2.35,45.68,10.89,64.28,19.59C377.2,305.76,388.86,314.85,386.24,330Z" style="fill: rgb(255, 168, 167); transform-origin: 291.354px 353.924px;" id="el83yx5zxgjse" class="animable"></path><path d="M361.13,330.7c-.06-.08-.53-.82-.6-.72,1.64-2.49,2-3.88,1.46-4.63-2.54-3.32-8.71-2.63-12.63.22-5.85-1.09-11.63-.69-20.75,3.31-9.76,4.29-15.3,11.08-29.33,6.24-12.36-4.27-20.22,1.27-22.75,7.62-.78,2-1.42,3.84-2.28,5.65l9.26.68c-4.22,4.55-6.07,6.49-10.55,9.78-4.12,3-9.71,3.32-15.51,2.5-4.41,1.65-9.95,3.39-15.11,4.91a22.94,22.94,0,0,0-4.83,10.27c-3.2,14.49-11.89,15.67-20.65,21.75-8.18,5.68-11.53,10.4-13.66,16-4.49,1.85-8.3,6.75-6.79,10.65.34.88,1.73,1.28,4.7,1.18-.11,0,.27.8.31.89a3.45,3.45,0,0,0,2.87,2.15,7.49,7.49,0,0,1,2.42.15c.85.35,1.31,1.3,2.13,1.71a3.38,3.38,0,0,0,2,.13c5-.81,22.4-8.17,36.05-20.2,17.9-15.78,41.05-33.33,62.43-41.89,2.24-.89,4.6-1.42,6.9-2.15,4.58-1.46,9.14-3,13.65-4.65s9-3.46,13.47-5.48a50,50,0,0,0,8.21-4.84,30.12,30.12,0,0,0,3.59-3.18c.55-.58,1.08-1.18,1.58-1.8a4.47,4.47,0,0,0,1.11-1.89,11.22,11.22,0,0,1,.58-2.45,7.62,7.62,0,0,1,1.27-1.63,3.36,3.36,0,0,0,.95-1.81c.08-.91-.48-1.8-.35-2.71a8,8,0,0,1,1.14-2.15,3.41,3.41,0,0,0,.23-2.43A4,4,0,0,0,361.13,330.7Z" style="fill: rgb(242, 143, 143); transform-origin: 279.149px 377.184px;" id="elmvdzuxfagbr" class="animable"></path><path d="M361.13,330.7c-.06-.08-.53-.82-.6-.72,1.64-2.49,2-3.88,1.46-4.63-2.54-3.32-8.71-2.63-12.63.22-5.85-1.09-11.63-.69-20.75,3.31-9.76,4.29-15.3,11.08-29.33,6.24-12.36-4.27-20.22,1.27-22.75,7.62-.78,2-1.42,3.84-2.28,5.65l9.26.68c-4.22,4.55-6.07,6.49-10.55,9.78-4.12,3-9.71,3.32-15.51,2.5-4.41,1.65-9.95,3.39-15.11,4.91a22.94,22.94,0,0,0-4.83,10.27c-3.2,14.49-11.89,15.67-20.65,21.75-8.18,5.68-11.53,10.4-13.66,16-4.49,1.85-8.3,6.75-6.79,10.65.34.88,1.73,1.28,4.7,1.18-.11,0,.27.8.31.89a3.45,3.45,0,0,0,2.87,2.15,7.49,7.49,0,0,1,2.42.15c.85.35,1.31,1.3,2.13,1.71a3.38,3.38,0,0,0,2,.13c5-.81,22.4-8.17,36.05-20.2,17.9-15.78,41.05-33.33,62.43-41.89,2.24-.89,4.6-1.42,6.9-2.15,4.58-1.46,9.14-3,13.65-4.65s9-3.46,13.47-5.48a50,50,0,0,0,8.21-4.84,30.12,30.12,0,0,0,3.59-3.18c.55-.58,1.08-1.18,1.58-1.8a4.47,4.47,0,0,0,1.11-1.89,11.22,11.22,0,0,1,.58-2.45,7.62,7.62,0,0,1,1.27-1.63,3.36,3.36,0,0,0,.95-1.81c.08-.91-.48-1.8-.35-2.71a8,8,0,0,1,1.14-2.15,3.41,3.41,0,0,0,.23-2.43A4,4,0,0,0,361.13,330.7Z" style="fill: rgb(242, 143, 143); transform-origin: 279.149px 377.184px;" id="elsceu8a4nzrf" class="animable"></path><path d="M265.07,364.25c-10.36-7.18-17-6-17-6l-18.34,5.13,5.46-8.74L182.05,271c-11.89,23.55-18.36,39.3-28.38,68.34-10.13,29.37-18.27,59-13.57,79s25.41,18.95,33.44,19.85,29.83.83,46.85-10.45,54.52-43.07,54.52-43.07S275.44,371.44,265.07,364.25Z" style="fill: rgb(69, 90, 100); transform-origin: 206.824px 354.767px;" id="eli3k8e2cvy6f" class="animable"></path><path d="M234.36,355.7l.85-1,22.31-7.51,11.58.85s17.53-15.21,26.13-34.61c8.49-19.13,10.33-33.92,10.33-33.92l-14.27-4s-5.64,17.47-35.66,21.9-59.58-10.1-70.15-21c0,0-4.76,6.87-10.79,20.4-5.5,12.33-11,26.06-11,26.06a113.21,113.21,0,0,1,34.49,9.61C216,340.73,234.36,355.7,234.36,355.7Z" style="fill: rgb(69, 90, 100); transform-origin: 234.625px 315.605px;" id="elbhjpih794a" class="animable"></path><path d="M292.15,272s48.66,14.35,67.23,24.56,30.23,17.25,27.94,32.55-10.76,22.62-29.83,31.11S304.2,381,304.2,381s1.84-13.73-5.33-21.61-19.65-7-19.65-7l3.18-2.81-24.72-2.4Z" style="fill: rgb(69, 90, 100); transform-origin: 322.643px 326.5px;" id="el4waihc4i19u" class="animable"></path><path d="M362,325.35c-2.54-3.32-8.71-2.63-12.63.22-5.85-1.09-11.63-.69-20.75,3.31-9.76,4.29-15.3,11.08-29.33,6.24-12.36-4.27-20.22,1.27-22.75,7.62-.78,2-1.42,3.84-2.28,5.65l9.26.68c-1.17,1.27-2.16,2.32-3.08,3.27,3.42,0,12.53.72,18.28,7,3.13,3.44,4.54,8,5.14,12,1.85-.85,3.69-1.67,5.51-2.4,2.24-.89,4.6-1.42,6.9-2.15,4.58-1.46,9.14-3,13.65-4.65s9-3.46,13.47-5.48a50,50,0,0,0,8.21-4.84,30.12,30.12,0,0,0,3.59-3.18c.55-.58,1.08-1.18,1.58-1.8a4.47,4.47,0,0,0,1.11-1.89,11.22,11.22,0,0,1,.58-2.45,7.62,7.62,0,0,1,1.27-1.63,3.36,3.36,0,0,0,.95-1.81c.08-.91-.48-1.8-.35-2.71a8,8,0,0,1,1.14-2.15,3.41,3.41,0,0,0,.23-2.43,4,4,0,0,0-.56-1.14c-.06-.08-.53-.82-.6-.72C362.17,327.49,362.56,326.1,362,325.35Z" style="fill: rgb(55, 71, 79); transform-origin: 318.25px 347.237px;" id="ele5s56ipfix4" class="animable"></path><path d="M319.17,315.18c-17.95,9.78-26.1,17.16-26.1,17.16s-3.24-4.51-10.5-3.94-10.07,5.49-14.3,11.31a19.16,19.16,0,0,1-5,4.34l-1.25-.31a62.5,62.5,0,0,0,13-22.89s-6.91,15.06-16.61,21.68c-4.44,3-13.22,5.45-17.78,3.39s-10.19-11.76-10.19-11.76c3.43,5.65,3.32,17.32,3.28,17.94a14.38,14.38,0,0,1-1.13,2.19,9.72,9.72,0,0,1-5.94,4.57A298.46,298.46,0,0,0,195.49,369c-19.33,7.57-25.2,21.71-25.2,21.71,9.48-13.94,37.5-20.67,59.46-27.32l3.94-6.29-.13,0,1.65-2.47,22.31-7.51,1,.07,25,1.84c13.82-14.55,29.29-26.94,38-32.28a46.29,46.29,0,0,1,25.94-6.62S334.35,306.91,319.17,315.18Z" style="fill: rgb(55, 71, 79); transform-origin: 258.875px 350.111px;" id="elzcpbp01aiik" class="animable"></path><path d="M358.47,325.31c-.05-.09-.46-.73-.59-.73,1.63-2.49,2-3.87,1.44-4.61-2.53-3.34-8.7-2.65-12.62.21-5.85-1.09-11.64-.69-20.74,3.3-9.77,4.3-15.31,11.09-29.35,6.25-12.36-4.28-20.21,1.28-22.74,7.61-2.38,6-3.43,11.07-13.42,16.22a94.75,94.75,0,0,1-12.3,4.7c.66-.09,7.12-.79,16.92,6,8.24,5.71,9.6,15.27,9.81,18.93,10.18-7.95,20.72-15.12,31.82-19.56,2.23-.9,4.6-1.41,6.89-2.15,4.58-1.46,9.14-3,13.66-4.66s9-3.45,13.47-5.47a50,50,0,0,0,8.21-4.84,30.12,30.12,0,0,0,3.59-3.18c.54-.58,1.08-1.18,1.59-1.8a4.65,4.65,0,0,0,1.1-1.88,12,12,0,0,1,.57-2.47,8.53,8.53,0,0,1,1.27-1.63,3.34,3.34,0,0,0,1-1.81c.08-.91-.48-1.8-.35-2.7a7.92,7.92,0,0,1,1.13-2.15,3.38,3.38,0,0,0,.24-2.44A4.11,4.11,0,0,0,358.47,325.31Z" style="fill: rgb(255, 168, 167); transform-origin: 303.857px 350.464px;" id="el84i7ozdw9n8" class="animable"></path></g><g id="freepik--Top--inject-39" class="animable" style="transform-origin: 241.231px 180.787px;"><path d="M238,222.12c15.78-1.15,29.89-7.18,43.12-15.44a44.62,44.62,0,0,0,10.21-9c5.07-6,9.17-13,10.51-20.65s-.38-16.16-5.66-21.92c-4.8-5.23-12.37-8.33-14.7-15-1.74-5,0-10.76-1.91-15.7-2.37-6-9.84-9.68-10.25-16.15-.23-3.58,2.38-5.67,4.52-8.18,6.45-7.57,6.91-19.17,2.42-28s-11.71-14.56-21.2-17.52c-9.84-3.07-26.58-3.68-36,1.22C210.7,60,203.75,65.91,202,75.46c-8.5,2.88-15.44,11.41-16.1,20.45-.3,4,.49,8.31-1.08,12-1.89,4.48-6.57,6.93-10.48,9.81-4.8,3.53-8.95,8.5-9.74,14.41-.72,5.38,1.38,11.12-.66,16.15-2.23,5.54-8.49,8-13.14,11.78-7.38,5.94-9.85,15.08-7.44,24.14,1.36,5.11,4.13,11.16,8.06,14.74,4.32,3.95,9.88,6.85,15.1,9.39A141.26,141.26,0,0,0,238,222.12Z" style="fill: rgb(38, 50, 56); transform-origin: 222.371px 137.322px;" id="elxfp4psucm2a" class="animable"></path><path d="M262.4,153.51c15.06,1.18,24,2.9,39.83,19.46,9.51,10,64.13,75.81,64.13,75.81l-46.65,7.91L273,211.26Z" style="fill: rgb(186, 104, 200); transform-origin: 314.38px 205.1px;" id="elzfxd387nizp" class="animable"></path><g id="freepik--top--inject-39" class="animable" style="transform-origin: 237.859px 190.951px;"><path d="M299.29,274.07c-4-13.53-6.81-16.71-6.82-20.71.09-6.64-1-20.54-1-20.54,18.59-14.71,10.29-38.36,3.16-47.82-13.16-17.46-23.7-24.56-32.27-31.49l-15.69-1.3-34.63-.06-19.94,3.42c-5.09,2.34-12,12.18-14.65,19.91-4.79,13.78-4.88,22.33-2.52,36.12,3,17.44,6,27.35,7.78,35.8,2.47,11.65-1.89,21-9.78,41.46C217.45,327.93,291.51,304.59,299.29,274.07Z" style="fill: rgb(55, 71, 79); transform-origin: 237.859px 230.774px;" id="elo4zqrz9p8z" class="animable"></path><path d="M264.3,73.11c3.07,1.43,7.94,8.75,8.78,37,.68,22.83-7.34,30.91-11.79,32.86-3.72,1.63-8.57,2-14.49,1.81l-.09,7.77c4.54,5.06,11,23,6.5,31-11-2.21-36.16-17.45-40.94-31.46l.24-24.39s-5.58,6.06-12.88.39c-6-4.67-7.08-14.06-2.88-18.86s12.89-4.12,16.43,2.16c0,0,8.88,6.09,8.29-8.29-.68-16.22,5.86-32.48,16.93-29C258.24,80.19,258,70,264.3,73.11Z" style="fill: rgb(255, 168, 167); transform-origin: 233.671px 128.027px;" id="el8csecu512de" class="animable"></path><path d="M239.32,110.3a7.86,7.86,0,1,1-7.87-7.85A7.85,7.85,0,0,1,239.32,110.3Z" style="fill: rgb(242, 143, 143); transform-origin: 231.46px 110.31px;" id="el697hjg8v8zu" class="animable"></path><path d="M264.34,108.05a7.84,7.84,0,0,0,8.72,7.81q.1-2.73,0-5.8c-.11-3.62-.29-6.9-.52-9.86l-.37,0A7.86,7.86,0,0,0,264.34,108.05Z" style="fill: rgb(242, 143, 143); transform-origin: 268.725px 108.055px;" id="elxrixy6rg8cb" class="animable"></path><path d="M248.45,128.61a2.8,2.8,0,0,0,4,.36,3.45,3.45,0,0,0,.58-4.2,3.32,3.32,0,0,0-1-1.09,2.89,2.89,0,0,1,1.53-.81,5.16,5.16,0,0,0-3.73.3,3.78,3.78,0,0,0-1.58,1.68A4.19,4.19,0,0,0,248.45,128.61Z" style="fill: rgb(177, 102, 104); transform-origin: 250.729px 126.15px;" id="elkh2zoccz5h" class="animable"></path><path d="M252.86,128a3.27,3.27,0,0,1-.59.7,2.53,2.53,0,0,1-3.52-.28,3.91,3.91,0,0,1-.47-2.35A6.17,6.17,0,0,1,252.86,128Z" style="fill: rgb(242, 143, 143); transform-origin: 250.557px 127.676px;" id="elnlqx9785xtb" class="animable"></path><path d="M246.8,144.73c-7.39-.53-22.89-4.42-26.52-12.5,0,0,.77,7,5.54,10.58,7.27,5.41,20.93,6.67,20.93,6.67Z" style="fill: rgb(242, 143, 143); transform-origin: 233.54px 140.855px;" id="eljtb4er2uox" class="animable"></path><polygon points="248.73 95.69 251.09 116.56 262.48 111.46 248.73 95.69" style="fill: rgb(242, 143, 143); transform-origin: 255.605px 106.125px;" id="el3xdpaqhzbce" class="animable"></polygon><path d="M259.61,90.65l7.09,2.55a4,4,0,0,0-2.35-4.94A3.67,3.67,0,0,0,259.61,90.65Z" style="fill: rgb(38, 50, 56); transform-origin: 263.25px 90.6241px;" id="el5d2rkbb667h" class="animable"></path><path d="M236.51,104.32a5.16,5.16,0,0,0,1.44.36c2.28.22,5.11-1.14,5.56-3,0-.06,0-.31-.1-.26a11.68,11.68,0,0,1-1.95.92,9.4,9.4,0,0,1-3.33.73,10.13,10.13,0,0,1-3.56-.75.3.3,0,0,0-.16,0c-.32.06,0,.56.11.68a5.73,5.73,0,0,0,.91.8A5.62,5.62,0,0,0,236.51,104.32Z" style="fill: rgb(38, 50, 56); transform-origin: 238.891px 103.058px;" id="elujxosakbfk" class="animable"></path><path d="M266.34,102.67a5.25,5.25,0,0,1-1.4.47c-2.25.4-5.18-.74-5.78-2.59,0-.06,0-.31.08-.27a10.91,10.91,0,0,0,2,.77,9.54,9.54,0,0,0,3.38.47,10.17,10.17,0,0,0,3.49-1,.3.3,0,0,1,.16,0c.32,0,0,.56-.06.69a5.76,5.76,0,0,1-.84.87A5.38,5.38,0,0,1,266.34,102.67Z" style="fill: rgb(38, 50, 56); transform-origin: 263.785px 101.748px;" id="elcnb3gtbxe4t" class="animable"></path><path d="M239.84,91.44l-6.78,3.29a4,4,0,0,1,1.81-5.16A3.68,3.68,0,0,1,239.84,91.44Z" style="fill: rgb(38, 50, 56); transform-origin: 236.28px 91.97px;" id="ell9dyenvrz2a" class="animable"></path></g><path d="M192.14,155.57c-17.39,2.59-26.51,8.87-35,24.49-5.66,10.41-29.66,54.56-37.7,70.59-5.91,11.77-8.72,18.23-7.22,28l47.61-10.78,30.26-51.45C196.62,206.18,204.17,167.24,192.14,155.57Z" style="fill: rgb(186, 104, 200); transform-origin: 155.163px 217.11px;" id="elt7e2i978qar" class="animable"></path><path d="M189.15,274.92c-4.69.65-28.13,9.07-36.4,11.53-6.56,1.95-15.5,3.41-23.49,2.34-9.56-1.28-15.86-6.58-16.78-8.84-1-2.49.46-8,7.53-14.81,9.31-8.94,12.55-10,22.4-11.69,10.88-1.83,30.33-2.13,35.38-2.5,9.42-.68,12.59-.66,20.59-3.92,8.19-3.34,14.18-4,19.33-5.12s9.71-4.68,12.71-5.75c2.09-.74,3,2.55.89,5.94-1.43,2.34-4.54,4.43-8.38,6.15-3.11,1.6-1.46,2.21,2.12,2.43s15.7,2.56,19.1,3.78,6.53,3.16,5.55,5.28c0,0,5.71.59,5.42,3.61s-5,4.3-5,4.3-.28,2.51-4.92,3.12c-2.61.34-10.24,0-13,.11-3.17.18-6.62.71-6.62.71s9.89,1.53,12.93,2.56c3.46,1.18,2.49,3.57-2,4.42s-16.25-1.17-20.11-.81c-4.95.47-7.64-.32-14.64-.92C197,276.44,193.83,274.26,189.15,274.92Z" style="fill: rgb(255, 168, 167); transform-origin: 183.664px 262.603px;" id="elisk2d8a6nzp" class="animable"></path><path d="M222.13,250.28c-1.22-.37-1.22-1,.8-2,3.84-1.72,6.95-3.81,8.38-6.15a18.79,18.79,0,0,1-7.65,3.76c-3.21.68-6.3,1.08-6.45,2.2s2.92,2.07,4.92,2.22Z" style="fill: rgb(242, 143, 143); transform-origin: 224.257px 246.22px;" id="el123q5o7w2ced" class="animable"></path><path d="M219.61,256.24c2.25.39,4.5.69,6.75.92s4.52.39,6.68.74,7.59,1.06,9.85,1.28,4.52.38,6.81.56c-4.27-1.52-11.89-2.68-16.33-3.39a49.91,49.91,0,0,0-6.88-.41,66.09,66.09,0,0,0-6.88.3" style="fill: rgb(242, 143, 143); transform-origin: 234.655px 257.839px;" id="eloi1mjm87wf" class="animable"></path><path d="M250.14,267.64a1.6,1.6,0,0,0,0-.92,1.77,1.77,0,0,0-.58-.77,5.51,5.51,0,0,0-1.7-.88,20.53,20.53,0,0,0-3.68-.81c-2.45-.38-8-1.14-10.5-1.36-1.24-.09-2.49-.18-3.77-.19s-2.55.11-3.78.19c-2.48.15-5,.36-7.49.66a74.43,74.43,0,0,0,7.46.56c1.27.06,2.51,0,3.7.06s2.44.16,3.67.28c2.46.19,8,.89,10.51,1a35.92,35.92,0,0,1,3.64.33C248.75,266,250.16,266.31,250.14,267.64Z" style="fill: rgb(242, 143, 143); transform-origin: 234.424px 265.175px;" id="elrndy9rvvkxj" class="animable"></path><path d="M218.34,270.55s4.15-.07,6.54-.19,10,.49,10,.49h0c-.64,0-2.13,0-2.66,0-3.17.18-6.62.71-6.62.71A68.84,68.84,0,0,0,218.34,270.55Z" style="fill: rgb(242, 143, 143); transform-origin: 226.61px 270.952px;" id="elneh48aj5pa" class="animable"></path><path d="M329.76,263.09c4.21.52,8,2.3,12,3.58a40,40,0,0,0,13.34,2.06c5.06-.17,11.81-2.09,14.56-6.74,3.43-5.79-2.91-13.47-7.08-17.13a24.55,24.55,0,0,0-11.17-5.77,47.74,47.74,0,0,0-8.62-.9c-7.43,0-14.79-.15-21.68-3.13-8.13-3.51-14.1-4.33-19.22-5.52s-9.61-4.88-12.59-6c-2.07-.79-3,2.48-1,5.92,1.38,2.36,4.46,4.51,8.25,6.32,3.08,1.66,1.42,2.24-2.16,2.38s-15.75,2.24-19.18,3.39-6.6,3-5.65,5.15c0,0-5.73.48-5.5,3.5s4.89,4.4,4.89,4.4.23,2.52,4.85,3.22c2.61.4,10.24.18,13,.39,3.16.24,6.6.85,6.6.85s-9.92,1.32-13,2.29c-3.48,1.1-2.55,3.51,1.88,4.45s16.33-1.19,20.12-.38,7.64-.17,14.65-.61c3.78-.24,7.45-2,11.24-1.84C328.79,263,329.28,263,329.76,263.09Z" style="fill: rgb(255, 168, 167); transform-origin: 317.347px 246.078px;" id="elcx9biymzo7p" class="animable"></path><path d="M297.29,237.81c1.23-.34,1.24-1-.76-2-3.79-1.81-6.87-4-8.25-6.32a18.9,18.9,0,0,0,7.58,3.91c3.19.75,6.28,1.21,6.4,2.34s-3,2-5,2.11Z" style="fill: rgb(242, 143, 143); transform-origin: 295.272px 233.67px;" id="elpcsk433w2p" class="animable"></path><path d="M299.69,243.82q-3.37.51-6.77.78c-2.25.22-4.53.3-6.69.6s-7.62.91-9.88,1.08-4.53.28-6.81.41c4.3-1.43,11.94-2.42,16.39-3a49.81,49.81,0,0,1,6.89-.27q3.42,0,6.87.44" style="fill: rgb(242, 143, 143); transform-origin: 284.615px 245.044px;" id="el69ee0x864a2" class="animable"></path><path d="M268.93,254.59a1.64,1.64,0,0,1,0-.93,1.89,1.89,0,0,1,.59-.76,5.61,5.61,0,0,1,1.72-.84,21.43,21.43,0,0,1,3.7-.73c2.45-.33,8-1,10.52-1.14,1.25-.06,2.5-.13,3.77-.11s2.55.16,3.78.27c2.48.2,5,.46,7.47.82a74.44,74.44,0,0,1-7.47.39c-1.27,0-2.51-.07-3.7,0s-2.44.11-3.67.2c-2.46.14-8,.72-10.53.81a35.83,35.83,0,0,0-3.64.26C270.35,253,268.94,253.26,268.93,254.59Z" style="fill: rgb(242, 143, 143); transform-origin: 284.671px 252.333px;" id="el0bmobjat33b" class="animable"></path><path d="M300.66,258.16s-4.15-.16-6.53-.33-10,.28-10,.28h0c.64,0,2.11.05,2.65.09,3.16.25,6.6.85,6.6.85A68.85,68.85,0,0,1,300.66,258.16Z" style="fill: rgb(242, 143, 143); transform-origin: 292.395px 258.421px;" id="elum0in05402" class="animable"></path></g></g></g><g id="freepik--Breath--inject-39" class="animable" style="transform-origin: 317.713px 106.389px;"><g id="freepik--breath--inject-39" class="animable" style="transform-origin: 317.713px 106.389px;"><path d="M315.56,115.55c.77,1.26,1.32,2.64,2.18,3.86a13.73,13.73,0,0,0,3,3,12,12,0,0,0,8.28,2.37c6.33-.63,12.24-7.13,9.52-13.59a1.13,1.13,0,0,1,.85-1.46c4.06-1.2,5.44-5.7,4.68-9.5-.85-4.27-3.9-7.53-8.42-7.4a13.19,13.19,0,0,0-2.65.35,20,20,0,0,1-2.48.72c-1.65.17-2.2-1.86-3.1-2.87a9,9,0,0,0-9.83-2.56,8.9,8.9,0,0,0-4.86,4.35,12.63,12.63,0,0,0-1,6.4c0,.26-.44,1.08-.7.56-1.88-3.72-.12-8.65,2.94-11.21a11,11,0,0,1,12.53-1.2,11.26,11.26,0,0,1,2.38,1.85,10.48,10.48,0,0,1,1,1.27c.16.24.63,1.32.85,1.4a5.33,5.33,0,0,0,1.15-.34c.5-.14,1-.26,1.53-.35A14,14,0,0,1,337,91c4.89.27,8.17,3.86,9.19,8.5s-.93,9.69-5.3,11.67c2.27,7.27-4,14.3-11.1,15.48a13.85,13.85,0,0,1-10.06-2.26c-2.55-1.73-5.63-4.91-5.64-8.18C314.07,115.51,315.14,114.86,315.56,115.55Z" style="fill: rgb(224, 224, 224); transform-origin: 328.355px 106.389px;" id="el5ydtrd4zf4" class="animable"></path><path d="M289.19,107.89c2.57-1.64,5.75-2.43,8.59-3.48l3.79-1.37a24.4,24.4,0,0,1,4.05-1.28c.65-.11.45.82.09,1a26.12,26.12,0,0,1-4.18,1.87c-1.33.52-2.67,1-4,1.53l-3.85,1.4a16.79,16.79,0,0,1-4.39,1.18C288.83,108.8,288.93,108.06,289.19,107.89Z" style="fill: rgb(224, 224, 224); transform-origin: 297.507px 105.247px;" id="eltyv218vmot8" class="animable"></path><path d="M290.88,116.12c2.95-.77,6.22-.55,9.25-.66l4-.14a23.1,23.1,0,0,1,4.24,0c.65.09.18.91-.23,1a25.77,25.77,0,0,1-4.56.5q-2.14.12-4.29.21c-1.36.06-2.72.11-4.09.15a16.86,16.86,0,0,1-4.54-.23C290.26,116.88,290.58,116.2,290.88,116.12Z" style="fill: rgb(224, 224, 224); transform-origin: 299.582px 116.231px;" id="el5tdw8dlqbcw" class="animable"></path><path d="M293.63,111.34a7,7,0,0,1,1.55-.57c.61-.19,1.2-.36,1.82-.5,1.06-.25,2.13-.47,3.2-.7s2.13-.44,3.21-.63a16.85,16.85,0,0,1,3.86-.53c.61,0,.2,1-.14,1.14a21.29,21.29,0,0,1-3.17.79l-3.31.72c-1.09.23-2.18.48-3.27.73-.51.11-1,.24-1.53.34a8.81,8.81,0,0,1-2.24.28C293.09,112.34,293.33,111.53,293.63,111.34Z" style="fill: rgb(224, 224, 224); transform-origin: 300.444px 110.41px;" id="eldbchsw158i" class="animable"></path></g></g><defs>     <filter id="active" height="200%">         <feMorphology in="SourceAlpha" result="DILATED" operator="dilate" radius="2"></feMorphology>                <feFlood flood-color="#32DFEC" flood-opacity="1" result="PINK"></feFlood>        <feComposite in="PINK" in2="DILATED" operator="in" result="OUTLINE"></feComposite>        <feMerge>            <feMergeNode in="OUTLINE"></feMergeNode>            <feMergeNode in="SourceGraphic"></feMergeNode>        </feMerge>    </filter>    <filter id="hover" height="200%">        <feMorphology in="SourceAlpha" result="DILATED" operator="dilate" radius="2"></feMorphology>                <feFlood flood-color="#ff0000" flood-opacity="0.5" result="PINK"></feFlood>        <feComposite in="PINK" in2="DILATED" operator="in" result="OUTLINE"></feComposite>        <feMerge>            <feMergeNode in="OUTLINE"></feMergeNode>            <feMergeNode in="SourceGraphic"></feMergeNode>        </feMerge>            <feColorMatrix type="matrix" values="0   0   0   0   0                0   1   0   0   0                0   0   0   0   0                0   0   0   1   0 "></feColorMatrix>    </filter></defs></svg>