<svg class="animated" id="freepik_stories-yoga-practice" xmlns="http://www.w3.org/2000/svg" viewBox="0 0 500 500" version="1.1" xmlns:xlink="http://www.w3.org/1999/xlink" xmlns:svgjs="http://svgjs.com/svgjs"><style>svg#freepik_stories-yoga-practice:not(.animated) .animable {opacity: 0;}svg#freepik_stories-yoga-practice.animated #freepik--background-simple--inject-261 {animation: 1s 1 forwards cubic-bezier(.36,-0.01,.5,1.38) lightSpeedRight;animation-delay: 0s;}svg#freepik_stories-yoga-practice.animated #freepik--plant-2--inject-261 {animation: 1s 1 forwards cubic-bezier(.36,-0.01,.5,1.38) slideRight;animation-delay: 0s;}svg#freepik_stories-yoga-practice.animated #freepik--plant-1--inject-261 {animation: 1s 1 forwards cubic-bezier(.36,-0.01,.5,1.38) fadeIn;animation-delay: 0s;}svg#freepik_stories-yoga-practice.animated #freepik--window-2--inject-261 {animation: 1s 1 forwards cubic-bezier(.36,-0.01,.5,1.38) fadeIn;animation-delay: 0s;}svg#freepik_stories-yoga-practice.animated #freepik--Mosaic--inject-261 {animation: 1s 1 forwards cubic-bezier(.36,-0.01,.5,1.38) zoomOut;animation-delay: 0s;}svg#freepik_stories-yoga-practice.animated #freepik--window-1--inject-261 {animation: 1s 1 forwards cubic-bezier(.36,-0.01,.5,1.38) zoomIn;animation-delay: 0s;}svg#freepik_stories-yoga-practice.animated #freepik--Character--inject-261 {animation: 1s 1 forwards cubic-bezier(.36,-0.01,.5,1.38) slideUp;animation-delay: 0s;}svg#freepik_stories-yoga-practice.animated #freepik--Floor--inject-261 {animation: 1s 1 forwards cubic-bezier(.36,-0.01,.5,1.38) zoomIn;animation-delay: 0s;}            @keyframes lightSpeedRight {              from {                transform: translate3d(50%, 0, 0) skewX(-20deg);                opacity: 0;              }              60% {                transform: skewX(10deg);                opacity: 1;              }              80% {                transform: skewX(-2deg);              }              to {                opacity: 1;                transform: translate3d(0, 0, 0);              }            }                    @keyframes slideRight {                0% {                    opacity: 0;                    transform: translateX(30px);                }                100% {                    opacity: 1;                    transform: translateX(0);                }            }                    @keyframes fadeIn {                0% {                    opacity: 0;                }                100% {                    opacity: 1;                }            }                    @keyframes zoomOut {                0% {                    opacity: 0;                    transform: scale(1.5);                }                100% {                    opacity: 1;                    transform: scale(1);                }            }                    @keyframes zoomIn {                0% {                    opacity: 0;                    transform: scale(0.5);                }                100% {                    opacity: 1;                    transform: scale(1);                }            }                    @keyframes slideUp {                0% {                    opacity: 0;                    transform: translateY(30px);                }                100% {                    opacity: 1;                    transform: inherit;                }            }        </style><g id="freepik--background-simple--inject-261" class="animable animator-active" style="transform-origin: 249.579px 246.721px;"><path d="M325.83,44.06S246.49,12.89,170.61,56.88,58.28,191.38,26.83,263.82,16.63,411.43,76.41,447.1s98.47-13.38,181-13.52,105.06,12.73,172.29-33.76,76.55-160.45,20.22-246.54S325.83,44.06,325.83,44.06Z" style="fill: rgb(126, 87, 194); transform-origin: 249.579px 246.721px;" id="elacqb74j59dg" class="animable"></path><g id="elcxxnucx5mcb"><path d="M325.83,44.06S246.49,12.89,170.61,56.88,58.28,191.38,26.83,263.82,16.63,411.43,76.41,447.1s98.47-13.38,181-13.52,105.06,12.73,172.29-33.76,76.55-160.45,20.22-246.54S325.83,44.06,325.83,44.06Z" style="fill: rgb(255, 255, 255); opacity: 0.7; transform-origin: 249.579px 246.721px;" class="animable"></path></g></g><g id="freepik--plant-2--inject-261" class="animable" style="transform-origin: 431.655px 360.5px;"><path d="M416.44,282.83s0-3.87,5.43-9.3,8.92-8.53,8.92-8.53,2.71,8.92-2.33,14.34a95.23,95.23,0,0,1-12,10.47Z" style="fill: rgb(126, 87, 194); transform-origin: 423.979px 277.405px;" id="elrn3gq22s6p" class="animable"></path><path d="M424.32,307.05s0-3.88,5.43-9.31,8.91-8.53,8.91-8.53,2.72,8.92-2.32,14.35a95.23,95.23,0,0,1-12,10.47Z" style="fill: rgb(126, 87, 194); transform-origin: 431.856px 301.62px;" id="elux7rgz4x26a" class="animable"></path><path d="M416.78,289.44s-.41-3.86-6.38-8.68-9.77-7.54-9.77-7.54-1.75,9.15,3.83,14a96.15,96.15,0,0,0,13.06,9.14Z" style="fill: rgb(126, 87, 194); transform-origin: 408.945px 284.79px;" id="elu1u945dj5c" class="animable"></path><path d="M426.3,318s-.81-3.79-7.26-8-10.5-6.47-10.5-6.47-.79,9.29,5.28,13.54a95.43,95.43,0,0,0,13.94,7.72Z" style="fill: rgb(126, 87, 194); transform-origin: 418.133px 314.16px;" id="el2tidefvjxkt" class="animable"></path><path d="M424.51,349.21s0-3.88-5.43-9.31-8.91-8.53-8.91-8.53-2.72,8.92,2.32,14.35a95.23,95.23,0,0,0,12,10.47Z" style="fill: rgb(126, 87, 194); transform-origin: 416.974px 343.78px;" id="el5qf1b4fsemk" class="animable"></path><path d="M424.6,356.82s-.55-3.84,4-10,7.62-9.71,7.62-9.71,4,8.44-.27,14.53a95.48,95.48,0,0,1-10.41,12.07Z" style="fill: rgb(126, 87, 194); transform-origin: 431.25px 350.41px;" id="el6x9vkyp9l2" class="animable"></path><path d="M430,379.37s0-3.88-5.43-9.3-8.91-8.53-8.91-8.53-2.72,8.91,2.32,14.34a95.23,95.23,0,0,0,12,10.47Z" style="fill: rgb(126, 87, 194); transform-origin: 422.464px 373.945px;" id="elivoffhm3vo" class="animable"></path><path d="M426.33,399.82s1-3.75-2.9-10.38S417,378.93,417,378.93s-4.89,7.94-1.39,14.47a95.86,95.86,0,0,0,9,13.17Z" style="fill: rgb(126, 87, 194); transform-origin: 420.396px 392.75px;" id="elzm53su8ssx" class="animable"></path><path d="M416,281.84a110.93,110.93,0,0,0,1.49,12c2.14,11.08,7.51,18.24,9.65,28.25s-4,22.91-2.36,35.77,6.65,20,5.22,28.6S421,418.32,421,418.32" style="fill: none; stroke: rgb(38, 50, 56); stroke-linecap: round; stroke-linejoin: round; transform-origin: 423.127px 350.08px;" id="elaan7f5l9dk" class="animable"></path><line x1="416.84" y1="292.01" x2="410.99" y2="287.53" style="fill: none; stroke: rgb(38, 50, 56); stroke-linecap: round; stroke-linejoin: round; transform-origin: 413.915px 289.77px;" id="elekyybw5w2xq" class="animable"></line><line x1="416.56" y1="286.84" x2="419.01" y2="282.49" style="fill: none; stroke: rgb(38, 50, 56); stroke-linecap: round; stroke-linejoin: round; transform-origin: 417.785px 284.665px;" id="el8tfierv56gn" class="animable"></line><path d="M426.77,321.67s-4.9-3.67-9.93-7.35" style="fill: none; stroke: rgb(38, 50, 56); stroke-linecap: round; stroke-linejoin: round; transform-origin: 421.805px 317.995px;" id="el4kgui35fw3o" class="animable"></path><path d="M424.32,314a78.37,78.37,0,0,1,8.7-13.31" style="fill: none; stroke: rgb(38, 50, 56); stroke-linecap: round; stroke-linejoin: round; transform-origin: 428.67px 307.345px;" id="el1z8yrcv5efc" class="animable"></path><path d="M424.32,354.72a60.58,60.58,0,0,0-10.48-14" style="fill: none; stroke: rgb(38, 50, 56); stroke-linecap: round; stroke-linejoin: round; transform-origin: 419.08px 347.72px;" id="elps6j9omilr" class="animable"></path><path d="M425.27,360.17a68.5,68.5,0,0,1,5.31-10.07c2.85-4.22,3.26-4.76,3.26-4.76" style="fill: none; stroke: rgb(38, 50, 56); stroke-linecap: round; stroke-linejoin: round; transform-origin: 429.555px 352.755px;" id="elo1zv9kdlzbk" class="animable"></path><path d="M430,386.5a64.55,64.55,0,0,0-4.41-8.92,56.87,56.87,0,0,0-5.71-7.48" style="fill: none; stroke: rgb(38, 50, 56); stroke-linecap: round; stroke-linejoin: round; transform-origin: 424.94px 378.3px;" id="el8s4p4g6q43e" class="animable"></path><path d="M424.56,406.57a16.65,16.65,0,0,0-1.47-8.59c-2-3.94-4.35-9.11-5.3-11.15" style="fill: none; stroke: rgb(38, 50, 56); stroke-linecap: round; stroke-linejoin: round; transform-origin: 421.213px 396.7px;" id="el8rurf9hshzl" class="animable"></path><path d="M452,334.63s.43-2.43-2.39-6.43-4.66-6.31-4.66-6.31-2.67,5.29-.1,9.25a60.24,60.24,0,0,0,6.4,7.86Z" style="fill: rgb(126, 87, 194); transform-origin: 447.878px 330.445px;" id="eljae5bxsnm79" class="animable"></path><path d="M444.42,349s.42-2.44-2.4-6.43-4.66-6.31-4.66-6.31-2.67,5.29-.1,9.24a60.69,60.69,0,0,0,6.4,7.87Z" style="fill: rgb(126, 87, 194); transform-origin: 440.293px 344.815px;" id="elrosi4nfa4co" class="animable"></path><path d="M451.05,338.73s.68-2.37,4.95-4.75,6.94-3.67,6.94-3.67.11,5.94-3.92,8.38a60.94,60.94,0,0,1-9.18,4.31Z" style="fill: rgb(126, 87, 194); transform-origin: 456.39px 336.655px;" id="eliqvin35o22" class="animable"></path><path d="M442,355.63s.92-2.29,5.42-4.2,7.29-2.92,7.29-2.92-.52,5.91-4.78,7.91a60.79,60.79,0,0,1-9.59,3.33Z" style="fill: rgb(126, 87, 194); transform-origin: 447.525px 354.13px;" id="ell9ultze9q1" class="animable"></path><path d="M439.72,375.37s.42-2.43,4.41-5.24,6.52-4.38,6.52-4.38.73,5.88-3,8.74a60.42,60.42,0,0,1-8.67,5.26Z" style="fill: rgb(126, 87, 194); transform-origin: 444.844px 372.75px;" id="elkd9tqxj71hr" class="animable"></path><path d="M438.84,380.14s.76-2.35-1.46-6.7-3.72-6.92-3.72-6.92-3.4,4.87-1.41,9.14a60.4,60.4,0,0,0,5.21,8.7Z" style="fill: rgb(126, 87, 194); transform-origin: 435.295px 375.44px;" id="elyaww3kqasr" class="animable"></path><path d="M432,399.75s-.28-2.45-4.1-5.49-6.26-4.75-6.26-4.75-1.07,5.84,2.51,8.9a60.43,60.43,0,0,0,8.36,5.75Z" style="fill: rgb(126, 87, 194); transform-origin: 427px 396.835px;" id="el3xbzvv9ppct" class="animable"></path><path d="M433,393.7s.42-2.43,4.42-5.25,6.51-4.38,6.51-4.38.74,5.89-3,8.74a60.25,60.25,0,0,1-8.68,5.26Z" style="fill: rgb(126, 87, 194); transform-origin: 438.12px 391.07px;" id="elkqsep6dte2g" class="animable"></path><path d="M433.08,406.91s-.2-2.46,2.95-6.19,5.19-5.89,5.19-5.89,2.2,5.51-.7,9.22a60.8,60.8,0,0,1-7.06,7.29Z" style="fill: rgb(126, 87, 194); transform-origin: 437.548px 403.085px;" id="ellxxm31g280a" class="animable"></path><path d="M452.4,334.06a71.08,71.08,0,0,1-2.24,7.39c-2.55,6.71-6.69,10.62-9.12,16.66s0,14.81-2.4,22.69-6.35,11.83-6.38,17.37,2.15,20.92,2.15,20.92" style="fill: none; stroke: rgb(38, 50, 56); stroke-linecap: round; stroke-linejoin: round; transform-origin: 442.33px 376.575px;" id="elf6uh7vu38cq" class="animable"></path><line x1="450.74" y1="340.34" x2="454.9" y2="338.16" style="fill: none; stroke: rgb(38, 50, 56); stroke-linecap: round; stroke-linejoin: round; transform-origin: 452.82px 339.25px;" id="el07qvwul2cyc" class="animable"></line><line x1="451.47" y1="337.13" x2="450.41" y2="334.13" style="fill: none; stroke: rgb(38, 50, 56); stroke-linecap: round; stroke-linejoin: round; transform-origin: 450.94px 335.63px;" id="elk4nuu4vi328" class="animable"></line><path d="M441.29,357.86s3.47-1.77,7-3.53" style="fill: none; stroke: rgb(38, 50, 56); stroke-linecap: round; stroke-linejoin: round; transform-origin: 444.79px 356.095px;" id="elj1ibfo8fvqi" class="animable"></path><path d="M443.66,353.33a49.48,49.48,0,0,0-4-9.29" style="fill: none; stroke: rgb(38, 50, 56); stroke-linecap: round; stroke-linejoin: round; transform-origin: 441.66px 348.685px;" id="elkpdjuxp5b6" class="animable"></path><path d="M439.24,378.85a38.79,38.79,0,0,1,8.09-7.65" style="fill: none; stroke: rgb(38, 50, 56); stroke-linecap: round; stroke-linejoin: round; transform-origin: 443.285px 375.025px;" id="elvebez3xuz1" class="animable"></path><path d="M438.05,382.16a44,44,0,0,0-2.23-6.89c-1.33-2.95-1.53-3.34-1.53-3.34" style="fill: none; stroke: rgb(38, 50, 56); stroke-linecap: round; stroke-linejoin: round; transform-origin: 436.17px 377.045px;" id="elfroygktc7bq" class="animable"></path><path d="M432.45,402.37a36.5,36.5,0,0,0-4.47-4.64,23.56,23.56,0,0,1-2.9-2.53" style="fill: none; stroke: rgb(38, 50, 56); stroke-linecap: round; stroke-linejoin: round; transform-origin: 428.765px 398.785px;" id="ele7qpl3cvygm" class="animable"></path><path d="M432.26,398.17a41.62,41.62,0,0,1,3.73-5.12,36.42,36.42,0,0,1,4.4-4.07" style="fill: none; stroke: rgb(38, 50, 56); stroke-linecap: round; stroke-linejoin: round; transform-origin: 436.325px 393.575px;" id="elkgpb5vtylrr" class="animable"></path><path d="M433.46,411.34a10.54,10.54,0,0,1,1.85-5.23c1.71-2.25,3.72-5.24,4.54-6.42" style="fill: none; stroke: rgb(38, 50, 56); stroke-linecap: round; stroke-linejoin: round; transform-origin: 436.655px 405.515px;" id="el450pt51trod" class="animable"></path><path d="M417.49,456h22.66a1.78,1.78,0,0,0,1.78-1.78l5.62-37.52H410.09l5.62,37.52A1.78,1.78,0,0,0,417.49,456Z" style="fill: rgb(38, 50, 56); stroke: rgb(38, 50, 56); stroke-linecap: round; stroke-linejoin: round; transform-origin: 428.82px 436.35px;" id="ellq8r8t42i0g" class="animable"></path></g><g id="freepik--plant-1--inject-261" class="animable" style="transform-origin: 58.6562px 360.5px;"><path d="M73.87,282.83s0-3.87-5.43-9.3S59.53,265,59.53,265s-2.72,8.92,2.32,14.34a95.23,95.23,0,0,0,12,10.47Z" style="fill: rgb(126, 87, 194); transform-origin: 66.3336px 277.405px;" id="elo6k3r5sttk" class="animable"></path><path d="M66,307.05s0-3.88-5.42-9.31-8.92-8.53-8.92-8.53-2.71,8.92,2.33,14.35A95.49,95.49,0,0,0,66,314Z" style="fill: rgb(126, 87, 194); transform-origin: 58.4662px 301.605px;" id="elvcqhw4uui0p" class="animable"></path><path d="M73.53,289.44s.41-3.86,6.38-8.68,9.77-7.54,9.77-7.54,1.76,9.15-3.83,14a95.48,95.48,0,0,1-13.06,9.14Z" style="fill: rgb(126, 87, 194); transform-origin: 81.3664px 284.79px;" id="elm36bifj5cf" class="animable"></path><path d="M64,318s.82-3.79,7.26-8,10.51-6.47,10.51-6.47.78,9.29-5.28,13.54a95.83,95.83,0,0,1-14,7.72Z" style="fill: rgb(126, 87, 194); transform-origin: 72.1464px 314.16px;" id="eljdjl6eot4df" class="animable"></path><path d="M65.8,349.21s0-3.88,5.43-9.31,8.92-8.53,8.92-8.53,2.71,8.92-2.33,14.35a95.23,95.23,0,0,1-12,10.47Z" style="fill: rgb(126, 87, 194); transform-origin: 73.3388px 343.78px;" id="elb3xj9f5pwkn" class="animable"></path><path d="M65.71,356.82s.55-3.84-4-10-7.61-9.71-7.61-9.71-4,8.44.26,14.53a95.48,95.48,0,0,0,10.41,12.07Z" style="fill: rgb(126, 87, 194); transform-origin: 59.0638px 350.41px;" id="elv34uow8a2x" class="animable"></path><path d="M60.36,379.37s0-3.88,5.43-9.3,8.92-8.53,8.92-8.53,2.71,8.91-2.33,14.34a95.23,95.23,0,0,1-12,10.47Z" style="fill: rgb(126, 87, 194); transform-origin: 67.8988px 373.945px;" id="ely2d7w49ki9c" class="animable"></path><path d="M64,399.82s-1-3.75,2.89-10.38,6.47-10.51,6.47-10.51,4.88,7.94,1.38,14.47a94.88,94.88,0,0,1-9,13.17Z" style="fill: rgb(126, 87, 194); transform-origin: 69.9443px 392.75px;" id="eliw9ypmyoc4b" class="animable"></path><path d="M74.36,281.84a111,111,0,0,1-1.48,12c-2.15,11.08-7.51,18.24-9.66,28.25s4,22.91,2.37,35.77-6.66,20-5.23,28.6,8.94,31.82,8.94,31.82" style="fill: none; stroke: rgb(38, 50, 56); stroke-linecap: round; stroke-linejoin: round; transform-origin: 67.2336px 350.06px;" id="el6uqniridy9u" class="animable"></path><line x1="73.48" y1="292.01" x2="79.33" y2="287.53" style="fill: none; stroke: rgb(38, 50, 56); stroke-linecap: round; stroke-linejoin: round; transform-origin: 76.405px 289.77px;" id="el2yc7rmbt894" class="animable"></line><line x1="73.75" y1="286.84" x2="71.3" y2="282.49" style="fill: none; stroke: rgb(38, 50, 56); stroke-linecap: round; stroke-linejoin: round; transform-origin: 72.525px 284.665px;" id="elt0htcocxxwm" class="animable"></line><path d="M63.55,321.67s4.89-3.67,9.93-7.35" style="fill: none; stroke: rgb(38, 50, 56); stroke-linecap: round; stroke-linejoin: round; transform-origin: 68.515px 317.995px;" id="el6k6c0mc2uks" class="animable"></path><path d="M66,314a78.37,78.37,0,0,0-8.7-13.31" style="fill: none; stroke: rgb(38, 50, 56); stroke-linecap: round; stroke-linejoin: round; transform-origin: 61.65px 307.345px;" id="elxgorqj1pmyk" class="animable"></path><path d="M66,354.72a60.36,60.36,0,0,1,10.47-14" style="fill: none; stroke: rgb(38, 50, 56); stroke-linecap: round; stroke-linejoin: round; transform-origin: 71.235px 347.72px;" id="el893ta79palt" class="animable"></path><path d="M65,360.17a69.05,69.05,0,0,0-5.3-10.07c-2.86-4.22-3.27-4.76-3.27-4.76" style="fill: none; stroke: rgb(38, 50, 56); stroke-linecap: round; stroke-linejoin: round; transform-origin: 60.715px 352.755px;" id="elsf0s03f7uo" class="animable"></path><path d="M60.36,386.5a64.55,64.55,0,0,1,4.41-8.92,56.87,56.87,0,0,1,5.71-7.48" style="fill: none; stroke: rgb(38, 50, 56); stroke-linecap: round; stroke-linejoin: round; transform-origin: 65.42px 378.3px;" id="el1krpdm7pgdz" class="animable"></path><path d="M65.75,406.57A16.65,16.65,0,0,1,67.22,398c2-3.94,4.35-9.11,5.3-11.15" style="fill: none; stroke: rgb(38, 50, 56); stroke-linecap: round; stroke-linejoin: round; transform-origin: 69.098px 396.71px;" id="elrqrpj7eblpf" class="animable"></path><path d="M38.33,334.63s-.42-2.43,2.39-6.43,4.67-6.31,4.67-6.31,2.67,5.29.1,9.25a60.24,60.24,0,0,1-6.4,7.86Z" style="fill: rgb(126, 87, 194); transform-origin: 42.4573px 330.445px;" id="el2aps2ycdco4" class="animable"></path><path d="M45.9,349s-.42-2.44,2.39-6.43S53,336.22,53,336.22s2.67,5.29.09,9.24a60.69,60.69,0,0,1-6.4,7.87Z" style="fill: rgb(126, 87, 194); transform-origin: 50.0458px 344.775px;" id="elvepnlp9f58" class="animable"></path><path d="M39.26,338.73s-.68-2.37-4.94-4.75-6.95-3.67-6.95-3.67-.11,5.94,3.93,8.38A60.94,60.94,0,0,0,40.48,343Z" style="fill: rgb(126, 87, 194); transform-origin: 33.9249px 336.655px;" id="elnd1zh5dawhd" class="animable"></path><path d="M48.33,355.63s-.92-2.29-5.41-4.2-7.29-2.92-7.29-2.92.51,5.91,4.78,7.91A60.48,60.48,0,0,0,50,359.75Z" style="fill: rgb(126, 87, 194); transform-origin: 42.815px 354.13px;" id="elqxrmw4i5sak" class="animable"></path><path d="M50.59,375.37s-.42-2.43-4.41-5.24-6.52-4.38-6.52-4.38-.73,5.88,3,8.74a60.42,60.42,0,0,0,8.67,5.26Z" style="fill: rgb(126, 87, 194); transform-origin: 45.4661px 372.75px;" id="el9s0f7txuso6" class="animable"></path><path d="M51.48,380.14s-.77-2.35,1.45-6.7,3.72-6.92,3.72-6.92,3.4,4.87,1.42,9.14a61,61,0,0,1-5.22,8.7Z" style="fill: rgb(126, 87, 194); transform-origin: 55.0201px 375.44px;" id="eljjwzmf8shz" class="animable"></path><path d="M58.29,399.75s.28-2.45,4.11-5.49,6.25-4.75,6.25-4.75,1.07,5.84-2.51,8.9a60.43,60.43,0,0,1-8.36,5.75Z" style="fill: rgb(126, 87, 194); transform-origin: 63.2899px 396.835px;" id="elqd61x20anq" class="animable"></path><path d="M57.28,393.7s-.42-2.43-4.41-5.25-6.52-4.38-6.52-4.38-.73,5.89,3,8.74A60.42,60.42,0,0,0,58,398.07Z" style="fill: rgb(126, 87, 194); transform-origin: 52.1461px 391.07px;" id="el7a1bfga295g" class="animable"></path><path d="M57.23,406.91s.21-2.46-2.94-6.19-5.2-5.89-5.2-5.89-2.2,5.51.7,9.22a60.8,60.8,0,0,0,7.06,7.29Z" style="fill: rgb(126, 87, 194); transform-origin: 52.7618px 403.085px;" id="eliwi2iqp53rk" class="animable"></path><path d="M37.91,334.06a71.08,71.08,0,0,0,2.24,7.39c2.55,6.71,6.69,10.62,9.12,16.66s0,14.81,2.4,22.69,6.35,11.83,6.38,17.37-2.15,20.92-2.15,20.92" style="fill: none; stroke: rgb(38, 50, 56); stroke-linecap: round; stroke-linejoin: round; transform-origin: 47.9802px 376.575px;" id="eligvs4cva91r" class="animable"></path><line x1="39.57" y1="340.34" x2="35.42" y2="338.16" style="fill: none; stroke: rgb(38, 50, 56); stroke-linecap: round; stroke-linejoin: round; transform-origin: 37.495px 339.25px;" id="el5lno71u1lwa" class="animable"></line><line x1="38.84" y1="337.13" x2="39.9" y2="334.13" style="fill: none; stroke: rgb(38, 50, 56); stroke-linecap: round; stroke-linejoin: round; transform-origin: 39.37px 335.63px;" id="els2bfabw8a5" class="animable"></line><path d="M49,357.86s-3.47-1.77-7-3.53" style="fill: none; stroke: rgb(38, 50, 56); stroke-linecap: round; stroke-linejoin: round; transform-origin: 45.5px 356.095px;" id="elqdam2zfe9k" class="animable"></path><path d="M46.65,353.33a49.48,49.48,0,0,1,4-9.29" style="fill: none; stroke: rgb(38, 50, 56); stroke-linecap: round; stroke-linejoin: round; transform-origin: 48.65px 348.685px;" id="elbgto9tan8dr" class="animable"></path><path d="M51.07,378.85A38.79,38.79,0,0,0,43,371.2" style="fill: none; stroke: rgb(38, 50, 56); stroke-linecap: round; stroke-linejoin: round; transform-origin: 47.035px 375.025px;" id="el4e4bx4zb2ol" class="animable"></path><path d="M52.26,382.16a44,44,0,0,1,2.23-6.89c1.34-2.95,1.53-3.34,1.53-3.34" style="fill: none; stroke: rgb(38, 50, 56); stroke-linecap: round; stroke-linejoin: round; transform-origin: 54.14px 377.045px;" id="el47a2lf6bytq" class="animable"></path><path d="M57.87,402.37a36.18,36.18,0,0,1,4.46-4.64,24.18,24.18,0,0,0,2.91-2.53" style="fill: none; stroke: rgb(38, 50, 56); stroke-linecap: round; stroke-linejoin: round; transform-origin: 61.555px 398.785px;" id="eli8as8ft7z4i" class="animable"></path><path d="M58.05,398.17a41.62,41.62,0,0,0-3.73-5.12A35.91,35.91,0,0,0,49.93,389" style="fill: none; stroke: rgb(38, 50, 56); stroke-linecap: round; stroke-linejoin: round; transform-origin: 53.99px 393.585px;" id="elszh6y0x4ex8" class="animable"></path><path d="M56.85,411.34A10.54,10.54,0,0,0,55,406.11c-1.71-2.25-3.72-5.24-4.54-6.42" style="fill: none; stroke: rgb(38, 50, 56); stroke-linecap: round; stroke-linejoin: round; transform-origin: 53.655px 405.515px;" id="el3d1u0gbs4un" class="animable"></path><path d="M72.82,456H50.16a1.78,1.78,0,0,1-1.78-1.78L42.76,416.7H80.22L74.6,454.22A1.78,1.78,0,0,1,72.82,456Z" style="fill: rgb(38, 50, 56); stroke: rgb(38, 50, 56); stroke-linecap: round; stroke-linejoin: round; transform-origin: 61.49px 436.35px;" id="elp2htoq7p32" class="animable"></path></g><g id="freepik--window-2--inject-261" class="animable" style="transform-origin: 403.81px 200px;"><g id="elnv64a68w8h"><g style="opacity: 0.3; transform-origin: 403.81px 200px;" class="animable"><g id="elm40cgdwhbgj"><path d="M335.07,42H472.55a0,0,0,0,1,0,0V291a67,67,0,0,1-67,67h0a70.45,70.45,0,0,1-70.45-70.45V42A0,0,0,0,1,335.07,42Z" style="fill: none; stroke: rgb(0, 0, 0); stroke-linecap: round; stroke-linejoin: round; transform-origin: 403.81px 200px; transform: rotate(180deg);" class="animable"></path></g><path d="M457,357.26V113a53.22,53.22,0,0,0-53.22-53.22h0A53.22,53.22,0,0,0,350.59,113v244.3" style="fill: none; stroke: rgb(0, 0, 0); stroke-linecap: round; stroke-linejoin: round; transform-origin: 403.795px 208.54px;" id="elngiyds1k94a" class="animable"></path><line x1="403.81" y1="42" x2="403.81" y2="357.63" style="fill: none; stroke: rgb(0, 0, 0); stroke-linecap: round; stroke-linejoin: round; transform-origin: 403.81px 199.815px;" id="elubr10zy5goo" class="animable"></line><line x1="471.81" y1="102.8" x2="335.99" y2="102.8" style="fill: none; stroke: rgb(0, 0, 0); stroke-linecap: round; stroke-linejoin: round; transform-origin: 403.9px 102.8px;" id="ellc9wsfx235" class="animable"></line><line x1="471.81" y1="145.67" x2="335.99" y2="145.67" style="fill: none; stroke: rgb(0, 0, 0); stroke-linecap: round; stroke-linejoin: round; transform-origin: 403.9px 145.67px;" id="elt5ol9hg3vte" class="animable"></line><line x1="471.81" y1="188.54" x2="335.99" y2="188.54" style="fill: none; stroke: rgb(0, 0, 0); stroke-linecap: round; stroke-linejoin: round; transform-origin: 403.9px 188.54px;" id="el9ds331wu1ym" class="animable"></line><line x1="471.81" y1="231.42" x2="335.99" y2="231.42" style="fill: none; stroke: rgb(0, 0, 0); stroke-linecap: round; stroke-linejoin: round; transform-origin: 403.9px 231.42px;" id="elz8g31bw9ghq" class="animable"></line><line x1="471.81" y1="274.29" x2="335.99" y2="274.29" style="fill: none; stroke: rgb(0, 0, 0); stroke-linecap: round; stroke-linejoin: round; transform-origin: 403.9px 274.29px;" id="el7jqpx9g56rr" class="animable"></line><line x1="471.81" y1="317.16" x2="335.99" y2="317.16" style="fill: none; stroke: rgb(0, 0, 0); stroke-linecap: round; stroke-linejoin: round; transform-origin: 403.9px 317.16px;" id="eld4l2pexhc88" class="animable"></line><line x1="453.65" y1="63.45" x2="441.34" y2="74.67" style="fill: none; stroke: rgb(0, 0, 0); stroke-linecap: round; stroke-linejoin: round; transform-origin: 447.495px 69.06px;" id="ell2q2g2hmvr" class="animable"></line><line x1="354.48" y1="63.45" x2="366.8" y2="74.67" style="fill: none; stroke: rgb(0, 0, 0); stroke-linecap: round; stroke-linejoin: round; transform-origin: 360.64px 69.06px;" id="elc77wxz5ntx" class="animable"></line></g></g></g><g id="freepik--Mosaic--inject-261" class="animable" style="transform-origin: 248.56px 98.38px;"><path d="M254.82,91.1H241.71a3.91,3.91,0,0,1-3.3-1.82c-2.86-4.52-9.9-16.25-8.91-21.17,1.35-6.6,19.62-18.49,19.62-18.49s16.74,11.71,17.94,17.93c1,5-6.07,17.08-8.92,21.7A3.91,3.91,0,0,1,254.82,91.1Z" style="fill: none; stroke: rgb(153, 153, 153); stroke-linecap: round; stroke-linejoin: round; transform-origin: 248.281px 70.36px;" id="el2u9j920edwa" class="animable"></path><path d="M250.34,88.94,239,95.5a3.91,3.91,0,0,1-3.77.07c-4.74-2.47-16.7-9.12-18.3-13.87-2.14-6.39,7.74-25.83,7.74-25.83s20.36,1.77,24.51,6.57c3.35,3.87,3.28,17.82,3.12,23.25A3.88,3.88,0,0,1,250.34,88.94Z" style="fill: none; stroke: rgb(153, 153, 153); stroke-linecap: round; stroke-linejoin: round; transform-origin: 234.493px 75.9451px;" id="elzshak00dnj" class="animable"></path><path d="M245.38,89.32l-6.55,11.35a3.92,3.92,0,0,1-3.22,2c-5.35.23-19,.46-22.79-2.87-5-4.46-6.21-26.24-6.21-26.24s18.51-8.64,24.5-6.56c4.84,1.68,11.76,13.8,14.33,18.58A3.88,3.88,0,0,1,245.38,89.32Z" style="fill: none; stroke: rgb(153, 153, 153); stroke-linecap: round; stroke-linejoin: round; transform-origin: 226.25px 84.7319px;" id="elv33ov897nio" class="animable"></path><path d="M241.28,92.13v13.1a3.91,3.91,0,0,1-1.82,3.3c-4.52,2.87-16.25,9.91-21.17,8.91-6.6-1.34-18.49-19.62-18.49-19.62s11.71-16.74,17.93-17.93c5-1,17.08,6.07,21.7,8.92A3.91,3.91,0,0,1,241.28,92.13Z" style="fill: none; stroke: rgb(153, 153, 153); stroke-linecap: round; stroke-linejoin: round; transform-origin: 220.54px 98.6652px;" id="elll6kdhvmib" class="animable"></path><path d="M239.12,96.61,245.68,108a3.9,3.9,0,0,1,.07,3.76c-2.47,4.75-9.12,16.71-13.87,18.3-6.39,2.14-25.83-7.74-25.83-7.74s1.77-20.35,6.56-24.5c3.88-3.36,17.83-3.28,23.26-3.12A3.88,3.88,0,0,1,239.12,96.61Z" style="fill: none; stroke: rgb(153, 153, 153); stroke-linecap: round; stroke-linejoin: round; transform-origin: 226.124px 112.502px;" id="elehkbm30hw3m" class="animable"></path><path d="M239.5,101.57l11.35,6.55a3.91,3.91,0,0,1,2,3.22c.23,5.35.45,19-2.87,22.79-4.46,5.05-26.24,6.21-26.24,6.21s-8.64-18.51-6.56-24.51c1.67-4.84,13.8-11.75,18.58-14.32A3.88,3.88,0,0,1,239.5,101.57Z" style="fill: none; stroke: rgb(153, 153, 153); stroke-linecap: round; stroke-linejoin: round; transform-origin: 234.911px 120.7px;" id="el5e116pvxto4" class="animable"></path><path d="M242.31,105.67h13.1a3.91,3.91,0,0,1,3.3,1.82c2.87,4.51,9.91,16.25,8.91,21.16-1.34,6.61-19.62,18.5-19.62,18.5s-16.74-11.71-17.93-17.94c-1-5,6.07-17.08,8.92-21.69A3.91,3.91,0,0,1,242.31,105.67Z" style="fill: none; stroke: rgb(153, 153, 153); stroke-linecap: round; stroke-linejoin: round; transform-origin: 248.845px 126.41px;" id="elurk2o49l5as" class="animable"></path><path d="M246.79,107.82l11.35-6.55a3.9,3.9,0,0,1,3.76-.08c4.75,2.48,16.71,9.12,18.3,13.88,2.14,6.39-7.74,25.83-7.74,25.83s-20.35-1.78-24.5-6.57c-3.36-3.87-3.28-17.82-3.12-23.25A3.91,3.91,0,0,1,246.79,107.82Z" style="fill: none; stroke: rgb(153, 153, 153); stroke-linecap: round; stroke-linejoin: round; transform-origin: 262.642px 120.823px;" id="eluw2r6n44z4a" class="animable"></path><path d="M251.74,107.45l6.56-11.36a3.9,3.9,0,0,1,3.22-1.94c5.35-.23,19-.46,22.79,2.86,5.05,4.47,6.21,26.24,6.21,26.24S272,131.89,266,129.82c-4.84-1.68-11.75-13.8-14.33-18.58A3.9,3.9,0,0,1,251.74,107.45Z" style="fill: none; stroke: rgb(153, 153, 153); stroke-linecap: round; stroke-linejoin: round; transform-origin: 270.866px 112.087px;" id="elqzteoiw4nl" class="animable"></path><path d="M255.85,104.64V91.53a3.9,3.9,0,0,1,1.82-3.29c4.51-2.87,16.25-9.91,21.16-8.91,6.61,1.34,18.5,19.61,18.5,19.61s-11.71,16.74-17.94,17.94c-5,1-17.08-6.07-21.7-8.92A3.92,3.92,0,0,1,255.85,104.64Z" style="fill: none; stroke: rgb(153, 153, 153); stroke-linecap: round; stroke-linejoin: round; transform-origin: 276.59px 98.1048px;" id="elhaj5zwf3az" class="animable"></path><path d="M258,100.16l-6.55-11.35a3.92,3.92,0,0,1-.08-3.77c2.48-4.74,9.12-16.7,13.88-18.3,6.39-2.14,25.83,7.75,25.83,7.75S289.3,94.84,284.51,99c-3.87,3.35-17.83,3.28-23.25,3.12A3.91,3.91,0,0,1,258,100.16Z" style="fill: none; stroke: rgb(153, 153, 153); stroke-linecap: round; stroke-linejoin: round; transform-origin: 271.003px 84.3077px;" id="elcgpp0qz203o" class="animable"></path><path d="M257.63,95.2l-11.36-6.55a3.91,3.91,0,0,1-1.94-3.22c-.23-5.35-.46-19,2.86-22.79,4.47-5,26.24-6.21,26.24-6.21s8.64,18.51,6.57,24.5c-1.68,4.84-13.8,11.76-18.58,14.33A3.87,3.87,0,0,1,257.63,95.2Z" style="fill: none; stroke: rgb(153, 153, 153); stroke-linecap: round; stroke-linejoin: round; transform-origin: 262.267px 76.0781px;" id="elc0ktszuwd65" class="animable"></path><circle cx="248.56" cy="98.38" r="61" style="fill: none; stroke: rgb(153, 153, 153); stroke-linecap: round; stroke-linejoin: round; transform-origin: 248.56px 98.38px;" id="elw3j5gfhdyp" class="animable"></circle><line x1="249.12" y1="49.62" x2="249.12" y2="37.38" style="fill: none; stroke: rgb(153, 153, 153); stroke-linecap: round; stroke-linejoin: round; transform-origin: 249.12px 43.5px;" id="elzd15a955uea" class="animable"></line><line x1="248" y1="147.15" x2="248" y2="159.38" style="fill: none; stroke: rgb(153, 153, 153); stroke-linecap: round; stroke-linejoin: round; transform-origin: 248px 153.265px;" id="el31uyzsgxv2f" class="animable"></line><line x1="297.33" y1="98.94" x2="309.56" y2="98.94" style="fill: none; stroke: rgb(153, 153, 153); stroke-linecap: round; stroke-linejoin: round; transform-origin: 303.445px 98.94px;" id="elnhsikqj0lk" class="animable"></line><line x1="199.8" y1="97.82" x2="187.56" y2="97.82" style="fill: none; stroke: rgb(153, 153, 153); stroke-linecap: round; stroke-linejoin: round; transform-origin: 193.68px 97.82px;" id="eln6ee300z4l" class="animable"></line><line x1="218.32" y1="68.25" x2="205.91" y2="55.84" style="fill: none; stroke: rgb(153, 153, 153); stroke-linecap: round; stroke-linejoin: round; transform-origin: 212.115px 62.045px;" id="elnanombl879q" class="animable"></line><line x1="278.11" y1="128.79" x2="291.64" y2="142.33" style="fill: none; stroke: rgb(153, 153, 153); stroke-linecap: round; stroke-linejoin: round; transform-origin: 284.875px 135.56px;" id="el4huz0pjcayc" class="animable"></line><line x1="278.48" y1="69.75" x2="292.02" y2="56.22" style="fill: none; stroke: rgb(153, 153, 153); stroke-linecap: round; stroke-linejoin: round; transform-origin: 285.25px 62.985px;" id="elp2wfsvxy1q" class="animable"></line><line x1="218.32" y1="128.04" x2="205.15" y2="141.2" style="fill: none; stroke: rgb(153, 153, 153); stroke-linecap: round; stroke-linejoin: round; transform-origin: 211.735px 134.62px;" id="el4mimba1v67r" class="animable"></line></g><g id="freepik--window-1--inject-261" class="animable" style="transform-origin: 92.26px 200px;"><g id="el55kvly7jqno"><g style="opacity: 0.3; transform-origin: 92.26px 200px;" class="animable"><g id="elbjf93qs4i09"><path d="M23.52,42H161a0,0,0,0,1,0,0V291a67,67,0,0,1-67,67h0a70.45,70.45,0,0,1-70.45-70.45V42A0,0,0,0,1,23.52,42Z" style="fill: none; stroke: rgb(0, 0, 0); stroke-linecap: round; stroke-linejoin: round; transform-origin: 92.26px 200px; transform: rotate(180deg);" class="animable"></path></g><path d="M145.48,357.26V113A53.22,53.22,0,0,0,92.26,59.74h0A53.22,53.22,0,0,0,39,113v244.3" style="fill: none; stroke: rgb(0, 0, 0); stroke-linecap: round; stroke-linejoin: round; transform-origin: 92.24px 208.52px;" id="eljt9ut383m8l" class="animable"></path><line x1="92.26" y1="42" x2="92.26" y2="357.63" style="fill: none; stroke: rgb(0, 0, 0); stroke-linecap: round; stroke-linejoin: round; transform-origin: 92.26px 199.815px;" id="elulfa6teggmm" class="animable"></line><line x1="160.27" y1="102.8" x2="24.44" y2="102.8" style="fill: none; stroke: rgb(0, 0, 0); stroke-linecap: round; stroke-linejoin: round; transform-origin: 92.355px 102.8px;" id="el6uonnz04xxp" class="animable"></line><line x1="160.27" y1="145.67" x2="24.44" y2="145.67" style="fill: none; stroke: rgb(0, 0, 0); stroke-linecap: round; stroke-linejoin: round; transform-origin: 92.355px 145.67px;" id="elyd07sfln97j" class="animable"></line><line x1="160.27" y1="188.54" x2="24.44" y2="188.54" style="fill: none; stroke: rgb(0, 0, 0); stroke-linecap: round; stroke-linejoin: round; transform-origin: 92.355px 188.54px;" id="el34j1uo0e8l6" class="animable"></line><line x1="160.27" y1="231.42" x2="24.44" y2="231.42" style="fill: none; stroke: rgb(0, 0, 0); stroke-linecap: round; stroke-linejoin: round; transform-origin: 92.355px 231.42px;" id="elnkwtqe1patk" class="animable"></line><line x1="160.27" y1="274.29" x2="24.44" y2="274.29" style="fill: none; stroke: rgb(0, 0, 0); stroke-linecap: round; stroke-linejoin: round; transform-origin: 92.355px 274.29px;" id="eldlkc69ziw8p" class="animable"></line><line x1="160.27" y1="317.16" x2="24.44" y2="317.16" style="fill: none; stroke: rgb(0, 0, 0); stroke-linecap: round; stroke-linejoin: round; transform-origin: 92.355px 317.16px;" id="eldzig4kghzkt" class="animable"></line><line x1="142.11" y1="63.45" x2="129.79" y2="74.67" style="fill: none; stroke: rgb(0, 0, 0); stroke-linecap: round; stroke-linejoin: round; transform-origin: 135.95px 69.06px;" id="el0y9zb339um7p" class="animable"></line><line x1="42.94" y1="63.45" x2="55.25" y2="74.67" style="fill: none; stroke: rgb(0, 0, 0); stroke-linecap: round; stroke-linejoin: round; transform-origin: 49.095px 69.06px;" id="elzmbix8ls2e" class="animable"></line></g></g></g><g id="freepik--Character--inject-261" class="animable" style="transform-origin: 280.267px 276.974px;"><path d="M305.16,208s6.21,3.59,14.39,12.42,12.75,35.64,3.59,40.87-14.71-4.9-14.71,2.94,8.83,12.43-1,20.6-30.74,7.52-33.35-6.86,9.15-23.22,11.11-32.7-.65-28.12,1.31-35.31S294.37,202.4,305.16,208Z" style="fill: rgb(38, 50, 56); stroke: rgb(38, 50, 56); stroke-linecap: round; stroke-linejoin: round; transform-origin: 300.948px 247.119px;" id="elkwe4ohmung" class="animable"></path><path d="M157.74,119.52s-2.48-2-3.81-2-1.91,1.68-3.82,3.17-4.77,2.23-3.06,3a5.53,5.53,0,0,0,5.54-.93c1.53-1.31,1.53-.56,2.67-.38l1.15.19Z" style="fill: none; stroke: rgb(38, 50, 56); stroke-linecap: round; stroke-linejoin: round; transform-origin: 152.133px 120.789px;" id="eldg9jb0zaw4k" class="animable"></path><path d="M154.69,123.8s-5.15-.93-5.54.56a3,3,0,0,0,1,3.36,3.81,3.81,0,0,0,2.67.37Z" style="fill: none; stroke: rgb(38, 50, 56); stroke-linecap: round; stroke-linejoin: round; transform-origin: 151.837px 125.849px;" id="el2bsg1syotd7" class="animable"></path><path d="M148.77,125.48s-2.86,1.12-2.1,3.17,4,2.42,4,2.42l1.15-2.42A6.34,6.34,0,0,1,148.77,125.48Z" style="fill: none; stroke: rgb(38, 50, 56); stroke-linecap: round; stroke-linejoin: round; transform-origin: 149.181px 128.275px;" id="elbnor3bve78l" class="animable"></path><path d="M146.86,129.4a3.39,3.39,0,0,0-.38,2.42c.38,1.12,2.67,2.05,2.67,2.05l1.53-2.8S147.05,130.14,146.86,129.4Z" style="fill: none; stroke: rgb(38, 50, 56); stroke-linecap: round; stroke-linejoin: round; transform-origin: 148.541px 131.635px;" id="elciw9ic1bohd" class="animable"></path><path d="M146.48,131.82s-1.33.75-.76,1.86A3.22,3.22,0,0,0,148,135l1.14-1.12S146.67,132.57,146.48,131.82Z" style="fill: none; stroke: rgb(38, 50, 56); stroke-linecap: round; stroke-linejoin: round; transform-origin: 147.359px 133.41px;" id="elju9vs3tiboh" class="animable"></path><path d="M282.27,204s-12.75-9.15-18-12.09-17-4.91-17-4.91l-29.76-21.9s-17.65-13.08-26.48-18-23.87-15-23.87-15L158.68,120l-9.48,16.34,16,3.6S195,166.43,202.49,173.3s13.08,9.16,13.08,9.16,14.72,14.71,20.93,19.61,9.15,6.21,9.15,6.21-.65,14.06-2,19.3-3.27,9.48-6.21,10.46a15.45,15.45,0,0,1-3.92,1s-2,19.29,4.57,29.75,20.93,10.14,24.85,10.14,12.75-11.77,12.75-11.77,9.16-3.6,12.75-6.87,9.63-17.42,9.63-17.42a89.88,89.88,0,0,0,20.78,2.71c10.79,0,25.83-5.56,25.83-5.56s20.6,0,30.41-2.94,35.31-11.77,35.31-11.77,9.15,2.61,16.35,2.29,13.4-1,15.36-2a5.57,5.57,0,0,0,2.62-2.94,2.54,2.54,0,0,0,2-1A23.9,23.9,0,0,0,448,219.4s1.63,0,1.63-1.31-4.9-3.27-4.9-3.27,5.56-2,3.27-2.61-21.58-1-21.58-1-.65-1.64,2-2.29,6.87-3.6,4.91-3.92l-2-.33a22.52,22.52,0,0,1-5.88,2,11,11,0,0,0-5.56,2.29c-1.31,1-8.17,7.85-8.17,7.85a102.73,102.73,0,0,1-21.91,2.61c-13.4.33-18,0-26.48,1.64S346,224.63,346,224.63l-23.22,1.31s-9.15-.33-11.44-1-6.86-2-12.75-7.85a136.43,136.43,0,0,0-14.06-11.77Z" style="fill: rgb(255, 255, 255); stroke: rgb(38, 50, 56); stroke-linecap: round; stroke-linejoin: round; transform-origin: 299.415px 199.466px;" id="elr5ibo36rh6" class="animable"></path><line x1="444.77" y1="214.82" x2="435.94" y2="215.15" style="fill: none; stroke: rgb(38, 50, 56); stroke-linecap: round; stroke-linejoin: round; transform-origin: 440.355px 214.985px;" id="eli79m6l8463" class="animable"></line><line x1="448.04" y1="219.4" x2="435.62" y2="218.75" style="fill: none; stroke: rgb(38, 50, 56); stroke-linecap: round; stroke-linejoin: round; transform-origin: 441.83px 219.075px;" id="elh3mhx6huz8b" class="animable"></line><line x1="444.77" y1="222.67" x2="436.92" y2="223" style="fill: none; stroke: rgb(38, 50, 56); stroke-linecap: round; stroke-linejoin: round; transform-origin: 440.845px 222.835px;" id="elvscly7ondj" class="animable"></line><line x1="435.94" y1="213.84" x2="436.92" y2="224.31" style="fill: none; stroke: rgb(38, 50, 56); stroke-linecap: round; stroke-linejoin: round; transform-origin: 436.43px 219.075px;" id="elyxq5qdopvjd" class="animable"></line><path d="M426.79,213.52a14.48,14.48,0,0,1-.66,3.59c-.65,2.29-7.84,2.62-7.84,2.62" style="fill: none; stroke: rgb(38, 50, 56); stroke-linecap: round; stroke-linejoin: round; transform-origin: 422.54px 216.625px;" id="el6ycbysj3gn8" class="animable"></path><line x1="344.72" y1="240" x2="363.03" y2="235.1" style="fill: none; stroke: rgb(38, 50, 56); stroke-linecap: round; stroke-linejoin: round; transform-origin: 353.875px 237.55px;" id="elvzs888hhdf" class="animable"></line><line x1="298.11" y1="242.85" x2="300.91" y2="237.06" style="fill: none; stroke: rgb(38, 50, 56); stroke-linecap: round; stroke-linejoin: round; transform-origin: 299.51px 239.955px;" id="el3m3742v3jy9" class="animable"></line><line x1="245.65" y1="208.28" x2="251.86" y2="212.21" style="fill: none; stroke: rgb(38, 50, 56); stroke-linecap: round; stroke-linejoin: round; transform-origin: 248.755px 210.245px;" id="eler9gvkgkzv4" class="animable"></line><line x1="251.21" y1="205.67" x2="252.52" y2="214.5" style="fill: none; stroke: rgb(38, 50, 56); stroke-linecap: round; stroke-linejoin: round; transform-origin: 251.865px 210.085px;" id="eld5zg2l48idm" class="animable"></line><path d="M287.83,225.94s2-4.9,4.58-10.46,6.21-5.23,7.52-4.58,6.21,2.29,7.52,1,7.84-11.77,7.84-11.77,3.27,0,4.26-1.63l-2.62-6.87s2-2,2-3.92v-5.23s1.31-7.2,1.31-8.83-6.54-3.6-13.08-.66-24.85,10.47-26.81,15-2.62,14.72-2.62,14.72-1,4.25-2.94,10.46" style="fill: rgb(255, 255, 255); stroke: rgb(38, 50, 56); stroke-linecap: round; stroke-linejoin: round; transform-origin: 297.515px 198.709px;" id="elwzbh41pabhl" class="animable"></path><path d="M292.73,191s-1-8.18-5.23-6.22-3.59,8.18-2.29,10.14,3.6,1.63-.65,4.25-8.17,4.25-11.12,0-8.17-13.08-2-23.54,19.95-19,31.72-18,11.44,5.55,11.44,5.55,8.17-5.23,13.73,3.6,3.27,13.73,1,13.73-3.27-2.61-3.27-2.61-1.63,3.27-3.27,3.92a12.49,12.49,0,0,1-3.92.66l-1-6.54s-9.81-1.64-11.12,2.28-2,8.83-5.88,10.79A20.48,20.48,0,0,1,292.73,191Z" style="fill: rgb(38, 50, 56); stroke: rgb(38, 50, 56); stroke-linecap: round; stroke-linejoin: round; transform-origin: 300.173px 179.666px;" id="elw5bejqgejon" class="animable"></path><path d="M314.48,191.28c0,1.09-.51,2-1.15,2s-1.14-.87-1.14-2,.51-2,1.14-2S314.48,190.2,314.48,191.28Z" style="fill: rgb(38, 50, 56); transform-origin: 313.335px 191.28px;" id="el3170muqldnf" class="animable"></path><path d="M310.72,187.36s2.29-3.27,5.56,0" style="fill: none; stroke: rgb(38, 50, 56); stroke-linecap: round; stroke-linejoin: round; transform-origin: 313.5px 186.633px;" id="elnnc6htlpbxa" class="animable"></path><path d="M306.47,200.44a4.52,4.52,0,0,0,4.25,2.94" style="fill: none; stroke: rgb(38, 50, 56); stroke-linecap: round; stroke-linejoin: round; transform-origin: 308.595px 201.91px;" id="els03yvndudcs" class="animable"></path><path d="M299.93,210.9l-8.18-7.52,1.31,10.46S295,208.61,299.93,210.9Z" style="fill: rgb(38, 50, 56); stroke: rgb(38, 50, 56); stroke-linecap: round; stroke-linejoin: round; transform-origin: 295.84px 208.61px;" id="ellnhs01jaylh" class="animable"></path><path d="M233.56,239l-2.95-.33a39.76,39.76,0,0,0-17-9.81c-10.13-2.61-25.5,1-25.5,1s-17-9.48-28.12-16.67-23.21-13.73-23.21-13.73,12.09-24.85,14.06-37.93S155.41,140,157.05,137s3.27-6.21,3.27-6.21,6.54,2.61,8.82.32,1.31-10.46,1.64-13.08,1-9.8,1-12.75V101s2-3.59-.65-2.94-4.25,2.94-5.56,4.9-7.19,15-11.45,21.91-17,27.47-25.17,41.85S115.2,199.46,112.25,206s-.32,12.75,1,13.73,17,17.33,30.41,25.5,20.93,14.06,25.18,15.7,16.35,10.46,17.65,15-5.23,28.77-.32,44.79,6.21,27.14,5.88,33.35-4.9,13.73-4.9,25.5,5.88,33,6.54,36.62,3.27,17,3.27,21.58-1.31,15-.66,16.35,8.83,2.29,11.45,1.63a27.88,27.88,0,0,1,7.19-1.31c2.61,0,9.15,1,13.08,1s7.52.33,7.84-1-3.27-2.94-4.57-3.27-9.49-3.27-13.41-7.84-8.17-8.83-9.15-11.45,1-34.65,2.29-45.44,2.94-22.89,3.59-25.83,3.6-9.16,5.23-21.26,4.25-45.12,4.58-47.73a76.66,76.66,0,0,1,2-8.17s19.29-3.6,23.87-3.6,11.12-.33,14.39-2,3.92-6.87.32-10.79-15-9.16-19-16a63.29,63.29,0,0,0-6.54-9.81Z" style="fill: rgb(255, 255, 255); stroke: rgb(38, 50, 56); stroke-linecap: round; stroke-linejoin: round; transform-origin: 189.167px 276.974px;" id="elj1faob078q8" class="animable"></path><path d="M231.71,238.81l-1.1-.12a39.76,39.76,0,0,0-17-9.81c-10.13-2.61-25.5,1-25.5,1s-17-9.48-28.12-16.67-23.21-13.73-23.21-13.73,12.09-24.85,14.06-37.93c.44-3,.92-5.66,1.41-8.14A44.29,44.29,0,0,0,140.57,147c-4,6.7-8.24,13.76-11.64,19.75-8.18,14.39-13.73,32.7-16.68,39.24s-.32,12.75,1,13.73,17,17.33,30.41,25.5,20.93,14.06,25.18,15.7,16.35,10.46,17.65,15-5.23,28.77-.32,44.79,6.21,27.14,5.88,33.35-4.9,13.73-4.9,25.5,5.88,33,6.54,36.62c.09.52.23,1.25.39,2.12,6.69,1.36,11.41.58,14.67-.85.49-10.77,1.49-24.63,2.27-31,1.3-10.79,2.94-22.89,3.59-25.83s3.6-9.16,5.23-21.26,4.25-45.12,4.58-47.73a76.66,76.66,0,0,1,2-8.17s2.69-.51,6.3-1.13C223.73,265.73,229.09,246.22,231.71,238.81Z" style="fill: rgb(38, 50, 56); stroke: rgb(38, 50, 56); stroke-linecap: round; stroke-linejoin: round; transform-origin: 171.812px 283.003px;" id="elpzamvlh4esd" class="animable"></path><path d="M293.18,252.7c4.93-12.22,2.82-14.92,2.82-19.24,0-6.54.33-18.31.33-18.31l-.38-.58-1-.85a56.8,56.8,0,0,1-2.58,13.86c-2.29,6.53-7.85,10.46-16.68,4.25s-2.61-16.35-2.61-16.35,3.46-11,3.34-15.55l-3.53-2.43c.08,4.15-.3,12.33-4.06,18-5.23,7.84-11.12,12.75-17.33,11.77a27.21,27.21,0,0,1-7.36-2.23c-.15,1-.31,1.85-.49,2.56-1.31,5.23-3.27,9.48-6.21,10.46a15.45,15.45,0,0,1-3.92,1s-2,19.29,4.57,29.75,20.93,10.14,24.85,10.14,12.75-11.77,12.75-11.77,9.16-3.6,12.75-6.87C290.54,258.4,292.17,255.15,293.18,252.7Z" style="fill: rgb(126, 87, 194); stroke: rgb(38, 50, 56); stroke-linecap: round; stroke-linejoin: round; transform-origin: 264.841px 238.226px;" id="el4rar0k52mbf" class="animable"></path><path d="M247.29,240.33s.32,9.15,9.48,11.11" style="fill: none; stroke: rgb(38, 50, 56); stroke-linecap: round; stroke-linejoin: round; transform-origin: 252.03px 245.885px;" id="el65e4yoifat" class="animable"></path></g><g id="freepik--Floor--inject-261" class="animable" style="transform-origin: 251.5px 456px;"><line x1="381" y1="456" x2="486" y2="456" style="fill: none; stroke: rgb(38, 50, 56); stroke-linecap: round; stroke-linejoin: round; transform-origin: 433.5px 456px;" id="elgkf3997yx0j" class="animable"></line><line x1="17" y1="456" x2="370" y2="456" style="fill: none; stroke: rgb(38, 50, 56); stroke-linecap: round; stroke-linejoin: round; transform-origin: 193.5px 456px;" id="elvtr0q15skmd" class="animable"></line></g><defs>     <filter id="active" height="200%">         <feMorphology in="SourceAlpha" result="DILATED" operator="dilate" radius="2"></feMorphology>                <feFlood flood-color="#32DFEC" flood-opacity="1" result="PINK"></feFlood>        <feComposite in="PINK" in2="DILATED" operator="in" result="OUTLINE"></feComposite>        <feMerge>            <feMergeNode in="OUTLINE"></feMergeNode>            <feMergeNode in="SourceGraphic"></feMergeNode>        </feMerge>    </filter>    <filter id="hover" height="200%">        <feMorphology in="SourceAlpha" result="DILATED" operator="dilate" radius="2"></feMorphology>                <feFlood flood-color="#ff0000" flood-opacity="0.5" result="PINK"></feFlood>        <feComposite in="PINK" in2="DILATED" operator="in" result="OUTLINE"></feComposite>        <feMerge>            <feMergeNode in="OUTLINE"></feMergeNode>            <feMergeNode in="SourceGraphic"></feMergeNode>        </feMerge>            <feColorMatrix type="matrix" values="0   0   0   0   0                0   1   0   0   0                0   0   0   0   0                0   0   0   1   0 "></feColorMatrix>    </filter></defs></svg>